G04*
G04 #@! TF.GenerationSoftware,Altium Limited,Altium Designer,20.2.6 (244)*
G04*
G04 Layer_Color=8388736*
%FSLAX25Y25*%
%MOIN*%
G70*
G04*
G04 #@! TF.SameCoordinates,4AA97A5E-EA8F-4A6E-9BBD-7CD435F3AC8D*
G04*
G04*
G04 #@! TF.FilePolarity,Positive*
G04*
G01*
G75*
%ADD120C,0.00039*%
D120*
X150754Y46209D02*
Y46012D01*
X150885D01*
X150984Y46143D02*
X151049D01*
X151082Y46111D01*
Y46012D01*
X150984D01*
X150951Y46045D01*
X150984Y46078D01*
X151082D01*
X151147Y46012D02*
Y46143D01*
X151246D01*
X151279Y46111D01*
Y46012D01*
X151476Y46209D02*
Y46012D01*
X151377D01*
X151344Y46045D01*
Y46111D01*
X151377Y46143D01*
X151476D01*
X151738Y46012D02*
Y46209D01*
X151836D01*
X151869Y46176D01*
Y46111D01*
X151836Y46078D01*
X151738D01*
X151968Y46143D02*
X152033D01*
X152066Y46111D01*
Y46012D01*
X151968D01*
X151935Y46045D01*
X151968Y46078D01*
X152066D01*
X152164Y46176D02*
Y46143D01*
X152131D01*
X152197D01*
X152164D01*
Y46045D01*
X152197Y46012D01*
X152328Y46176D02*
Y46143D01*
X152295D01*
X152361D01*
X152328D01*
Y46045D01*
X152361Y46012D01*
X152558D02*
X152492D01*
X152459Y46045D01*
Y46111D01*
X152492Y46143D01*
X152558D01*
X152591Y46111D01*
Y46078D01*
X152459D01*
X152656Y46143D02*
Y46012D01*
Y46078D01*
X152689Y46111D01*
X152722Y46143D01*
X152755D01*
X152853Y46012D02*
Y46143D01*
X152951D01*
X152984Y46111D01*
Y46012D01*
X153247D02*
Y46143D01*
X153312Y46209D01*
X153378Y46143D01*
Y46012D01*
Y46111D01*
X153247D01*
X153575Y46209D02*
Y46012D01*
X153476D01*
X153443Y46045D01*
Y46111D01*
X153476Y46143D01*
X153575D01*
X153673D02*
X153739D01*
X153771Y46111D01*
Y46012D01*
X153673D01*
X153640Y46045D01*
X153673Y46078D01*
X153771D01*
X153837Y45947D02*
Y46143D01*
X153935D01*
X153968Y46111D01*
Y46045D01*
X153935Y46012D01*
X153837D01*
X154067Y46176D02*
Y46143D01*
X154034D01*
X154099D01*
X154067D01*
Y46045D01*
X154099Y46012D01*
X154296D02*
X154230D01*
X154198Y46045D01*
Y46111D01*
X154230Y46143D01*
X154296D01*
X154329Y46111D01*
Y46078D01*
X154198D01*
X154526Y46209D02*
Y46012D01*
X154427D01*
X154394Y46045D01*
Y46111D01*
X154427Y46143D01*
X154526D01*
X154821Y46012D02*
Y46176D01*
Y46111D01*
X154788D01*
X154854D01*
X154821D01*
Y46176D01*
X154854Y46209D01*
X154985Y46012D02*
X155051D01*
X155083Y46045D01*
Y46111D01*
X155051Y46143D01*
X154985D01*
X154952Y46111D01*
Y46045D01*
X154985Y46012D01*
X155149Y46143D02*
Y46012D01*
Y46078D01*
X155182Y46111D01*
X155215Y46143D01*
X155247D01*
X155674Y46209D02*
X155543D01*
Y46111D01*
X155608D01*
X155543D01*
Y46012D01*
X155739D02*
X155805D01*
X155772D01*
Y46209D01*
X155739D01*
X155936Y46012D02*
X156002D01*
X156034Y46045D01*
Y46111D01*
X156002Y46143D01*
X155936D01*
X155903Y46111D01*
Y46045D01*
X155936Y46012D01*
X156100Y46143D02*
Y46045D01*
X156133Y46012D01*
X156166Y46045D01*
X156198Y46012D01*
X156231Y46045D01*
Y46143D01*
X156625Y46176D02*
X156592Y46209D01*
X156526D01*
X156494Y46176D01*
Y46143D01*
X156526Y46111D01*
X156592D01*
X156625Y46078D01*
Y46045D01*
X156592Y46012D01*
X156526D01*
X156494Y46045D01*
X156723Y46012D02*
X156789D01*
X156822Y46045D01*
Y46111D01*
X156789Y46143D01*
X156723D01*
X156690Y46111D01*
Y46045D01*
X156723Y46012D01*
X156887D02*
X156953D01*
X156920D01*
Y46209D01*
X156887D01*
X157182D02*
Y46012D01*
X157084D01*
X157051Y46045D01*
Y46111D01*
X157084Y46143D01*
X157182D01*
X157346Y46012D02*
X157281D01*
X157248Y46045D01*
Y46111D01*
X157281Y46143D01*
X157346D01*
X157379Y46111D01*
Y46078D01*
X157248D01*
X157445Y46143D02*
Y46012D01*
Y46078D01*
X157478Y46111D01*
X157510Y46143D01*
X157543D01*
X157642Y46012D02*
X157707D01*
X157674D01*
Y46143D01*
X157642D01*
X157806Y46012D02*
Y46143D01*
X157904D01*
X157937Y46111D01*
Y46012D01*
X158068Y45947D02*
X158101D01*
X158133Y45979D01*
Y46143D01*
X158035D01*
X158002Y46111D01*
Y46045D01*
X158035Y46012D01*
X158133D01*
M02*
