G04*
G04 #@! TF.GenerationSoftware,Altium Limited,Altium Designer,20.2.6 (244)*
G04*
G04 Layer_Color=8388736*
%FSLAX25Y25*%
%MOIN*%
G70*
G04*
G04 #@! TF.SameCoordinates,4AA97A5E-EA8F-4A6E-9BBD-7CD435F3AC8D*
G04*
G04*
G04 #@! TF.FilePolarity,Negative*
G04*
G01*
G75*
%ADD20R,0.03985X0.04560*%
%ADD22R,0.04560X0.03985*%
%ADD36R,0.03937X0.03150*%
%ADD54R,0.03543X0.04134*%
%ADD55R,0.04528X0.04134*%
%ADD56R,0.07874X0.06693*%
%ADD57R,0.02756X0.03543*%
%ADD58R,0.03937X0.04331*%
%ADD59R,0.07087X0.06299*%
%ADD60R,0.03543X0.07008*%
%ADD61R,0.06693X0.06299*%
%ADD62R,0.05472X0.05512*%
%ADD63R,0.05472X0.05906*%
%ADD64R,0.06299X0.07087*%
%ADD65R,0.05512X0.08268*%
%ADD66O,0.05512X0.08268*%
%ADD67R,0.04331X0.04331*%
%ADD68R,0.04331X0.03543*%
%ADD69R,0.03788X0.03288*%
%ADD70R,0.05906X0.05118*%
%ADD71O,0.06496X0.01378*%
%ADD72O,0.01378X0.06496*%
G04:AMPARAMS|DCode=73|XSize=11.81mil|YSize=25.59mil|CornerRadius=3.94mil|HoleSize=0mil|Usage=FLASHONLY|Rotation=270.000|XOffset=0mil|YOffset=0mil|HoleType=Round|Shape=RoundedRectangle|*
%AMROUNDEDRECTD73*
21,1,0.01181,0.01772,0,0,270.0*
21,1,0.00394,0.02559,0,0,270.0*
1,1,0.00787,-0.00886,-0.00197*
1,1,0.00787,-0.00886,0.00197*
1,1,0.00787,0.00886,0.00197*
1,1,0.00787,0.00886,-0.00197*
%
%ADD73ROUNDEDRECTD73*%
G04:AMPARAMS|DCode=74|XSize=15.75mil|YSize=27.56mil|CornerRadius=3.92mil|HoleSize=0mil|Usage=FLASHONLY|Rotation=180.000|XOffset=0mil|YOffset=0mil|HoleType=Round|Shape=RoundedRectangle|*
%AMROUNDEDRECTD74*
21,1,0.01575,0.01972,0,0,180.0*
21,1,0.00791,0.02756,0,0,180.0*
1,1,0.00784,-0.00396,0.00986*
1,1,0.00784,0.00396,0.00986*
1,1,0.00784,0.00396,-0.00986*
1,1,0.00784,-0.00396,-0.00986*
%
%ADD74ROUNDEDRECTD74*%
%ADD75R,0.04331X0.04331*%
%ADD76R,0.03543X0.03543*%
%ADD77R,0.04331X0.02756*%
%ADD78R,0.04134X0.03150*%
%ADD79R,0.05118X0.05906*%
%ADD80R,0.04331X0.03937*%
%ADD81R,0.03543X0.03543*%
G04:AMPARAMS|DCode=82|XSize=63.2mil|YSize=26.46mil|CornerRadius=13.23mil|HoleSize=0mil|Usage=FLASHONLY|Rotation=180.000|XOffset=0mil|YOffset=0mil|HoleType=Round|Shape=RoundedRectangle|*
%AMROUNDEDRECTD82*
21,1,0.06320,0.00000,0,0,180.0*
21,1,0.03674,0.02646,0,0,180.0*
1,1,0.02646,-0.01837,0.00000*
1,1,0.02646,0.01837,0.00000*
1,1,0.02646,0.01837,0.00000*
1,1,0.02646,-0.01837,0.00000*
%
%ADD82ROUNDEDRECTD82*%
%ADD83R,0.06320X0.02646*%
%ADD84R,0.03543X0.04331*%
%ADD85R,0.05906X0.12205*%
%ADD86C,0.12194*%
%ADD87C,0.08394*%
%ADD88O,0.07394X0.09394*%
%ADD89R,0.07394X0.09394*%
%ADD90C,0.07394*%
%ADD91R,0.07394X0.07394*%
%ADD92C,0.05118*%
%ADD93C,0.20079*%
%ADD94R,0.07894X0.09394*%
%ADD95O,0.07894X0.09394*%
%ADD96C,0.08268*%
%ADD97R,0.08268X0.08268*%
%ADD98C,0.02756*%
D20*
X285450Y236401D02*
D03*
Y242913D02*
D03*
X323800Y190120D02*
D03*
Y183608D02*
D03*
X86100Y146370D02*
D03*
Y139858D02*
D03*
X146680Y122521D02*
D03*
Y116009D02*
D03*
X149730Y91116D02*
D03*
Y84604D02*
D03*
D22*
X246720Y111650D02*
D03*
X240208D02*
D03*
X156035Y22950D02*
D03*
X149523D02*
D03*
X165080Y136550D02*
D03*
X171592D02*
D03*
X223480Y53150D02*
D03*
X229992D02*
D03*
X240208Y97000D02*
D03*
X246720D02*
D03*
X240208Y89100D02*
D03*
X246720D02*
D03*
X243996Y63615D02*
D03*
X237484D02*
D03*
D36*
X327765Y123811D02*
D03*
Y118299D02*
D03*
X300150Y123356D02*
D03*
Y117844D02*
D03*
D54*
X105832Y109450D02*
D03*
X111147D02*
D03*
D55*
X132600Y162244D02*
D03*
Y156535D02*
D03*
X132850Y136185D02*
D03*
Y141894D02*
D03*
D56*
X239350Y50387D02*
D03*
Y38970D02*
D03*
X285500Y218480D02*
D03*
Y207063D02*
D03*
D57*
X47560Y191601D02*
D03*
Y199869D02*
D03*
D58*
X58557Y205050D02*
D03*
X65250D02*
D03*
X75357Y204750D02*
D03*
X82050D02*
D03*
X92064Y205100D02*
D03*
X98757D02*
D03*
X106857Y205050D02*
D03*
X113550D02*
D03*
X208950Y194593D02*
D03*
X215643D02*
D03*
X207143Y172300D02*
D03*
X200450D02*
D03*
X206943Y161500D02*
D03*
X200250D02*
D03*
X291100Y163500D02*
D03*
X297793D02*
D03*
X291057Y174700D02*
D03*
X297750D02*
D03*
X290757Y185400D02*
D03*
X297450D02*
D03*
X200250Y182900D02*
D03*
X206943D02*
D03*
D59*
X276639Y196781D02*
D03*
D60*
X262662Y197135D02*
D03*
X258332D02*
D03*
X254001D02*
D03*
X249670D02*
D03*
X245339D02*
D03*
X241009D02*
D03*
X236678D02*
D03*
X232347D02*
D03*
D61*
X226796Y196781D02*
D03*
D62*
X224257Y203277D02*
D03*
D63*
Y232411D02*
D03*
D64*
X224670Y255245D02*
D03*
X277820D02*
D03*
D65*
X335149Y160190D02*
D03*
X75950Y172787D02*
D03*
D66*
X352865Y160190D02*
D03*
X335149Y193261D02*
D03*
X352865D02*
D03*
X58233Y139716D02*
D03*
X75950D02*
D03*
X58233Y172787D02*
D03*
D67*
X245195Y119045D02*
D03*
X238895D02*
D03*
X249805Y161595D02*
D03*
X243505D02*
D03*
D68*
X202000Y27850D02*
D03*
Y33755D02*
D03*
X191400Y33906D02*
D03*
Y28000D02*
D03*
D69*
X179050Y33294D02*
D03*
Y28449D02*
D03*
D70*
X212950Y237896D02*
D03*
Y244589D02*
D03*
X99162Y102392D02*
D03*
Y109085D02*
D03*
X72662Y108932D02*
D03*
Y102239D02*
D03*
D71*
X162124Y120172D02*
D03*
Y118203D02*
D03*
Y116235D02*
D03*
Y114267D02*
D03*
Y112298D02*
D03*
Y110329D02*
D03*
Y108361D02*
D03*
Y106393D02*
D03*
Y104424D02*
D03*
Y102455D02*
D03*
Y100487D02*
D03*
Y98519D02*
D03*
Y96550D02*
D03*
Y94582D02*
D03*
Y92613D02*
D03*
Y90645D02*
D03*
Y88676D02*
D03*
Y86708D02*
D03*
Y84739D02*
D03*
Y82771D02*
D03*
Y80802D02*
D03*
Y78834D02*
D03*
Y76865D02*
D03*
Y74897D02*
D03*
Y72928D02*
D03*
X221376D02*
D03*
Y74897D02*
D03*
Y76865D02*
D03*
Y78834D02*
D03*
Y80802D02*
D03*
Y82771D02*
D03*
Y84739D02*
D03*
Y86708D02*
D03*
Y88676D02*
D03*
Y90645D02*
D03*
Y94582D02*
D03*
Y96550D02*
D03*
Y98519D02*
D03*
Y100487D02*
D03*
Y102455D02*
D03*
Y104424D02*
D03*
Y106393D02*
D03*
Y108361D02*
D03*
Y110329D02*
D03*
Y112298D02*
D03*
Y114267D02*
D03*
Y116235D02*
D03*
Y118203D02*
D03*
Y120172D02*
D03*
Y92613D02*
D03*
D72*
X168128Y66924D02*
D03*
X170097D02*
D03*
X172065D02*
D03*
X174033D02*
D03*
X176002D02*
D03*
X177971D02*
D03*
X179939D02*
D03*
X181907D02*
D03*
X183876D02*
D03*
X185845D02*
D03*
X187813D02*
D03*
X189781D02*
D03*
X191750D02*
D03*
X193719D02*
D03*
X195687D02*
D03*
X197655D02*
D03*
X199624D02*
D03*
X201592D02*
D03*
X203561D02*
D03*
X205529D02*
D03*
X207498D02*
D03*
X209467D02*
D03*
X211435D02*
D03*
X213404D02*
D03*
X215372D02*
D03*
Y126176D02*
D03*
X213404D02*
D03*
X211435D02*
D03*
X209467D02*
D03*
X207498D02*
D03*
X205529D02*
D03*
X203561D02*
D03*
X201592D02*
D03*
X199624D02*
D03*
X197655D02*
D03*
X195687D02*
D03*
X193719D02*
D03*
X191750D02*
D03*
X189781D02*
D03*
X187813D02*
D03*
X185845D02*
D03*
X183876D02*
D03*
X181907D02*
D03*
X179939D02*
D03*
X177971D02*
D03*
X176002D02*
D03*
X174033D02*
D03*
X172065D02*
D03*
X170097D02*
D03*
X168128D02*
D03*
D73*
X249533Y170347D02*
D03*
Y172316D02*
D03*
Y174284D02*
D03*
Y176253D02*
D03*
X244217D02*
D03*
Y174284D02*
D03*
Y172316D02*
D03*
Y170347D02*
D03*
D74*
X246875Y176843D02*
D03*
Y169757D02*
D03*
D75*
X217450Y46300D02*
D03*
Y40001D02*
D03*
X329150Y83545D02*
D03*
Y89844D02*
D03*
X329400Y100194D02*
D03*
Y106493D02*
D03*
X296150Y89694D02*
D03*
Y83395D02*
D03*
D76*
X202450Y15800D02*
D03*
Y21705D02*
D03*
X191350Y15750D02*
D03*
Y21655D02*
D03*
X178600Y16295D02*
D03*
Y22200D02*
D03*
D77*
X289175Y62875D02*
D03*
Y70355D02*
D03*
X279726Y66615D02*
D03*
X340186Y70470D02*
D03*
Y62990D02*
D03*
X349634Y66730D02*
D03*
D78*
X157939Y43650D02*
D03*
X151443D02*
D03*
D79*
X157043Y33500D02*
D03*
X150350D02*
D03*
D80*
X324100Y161607D02*
D03*
Y168300D02*
D03*
X183900Y211200D02*
D03*
Y204507D02*
D03*
X84350Y168093D02*
D03*
Y161400D02*
D03*
D81*
X111903Y101950D02*
D03*
X105997D02*
D03*
X58950Y108950D02*
D03*
X64855D02*
D03*
D82*
X80830Y101499D02*
D03*
Y108979D02*
D03*
X89495D02*
D03*
Y105239D02*
D03*
D83*
Y101499D02*
D03*
D84*
X64615Y101739D02*
D03*
X58710D02*
D03*
D85*
X121200Y138278D02*
D03*
Y165050D02*
D03*
X111357D02*
D03*
Y138278D02*
D03*
D86*
X83230Y19492D02*
D03*
D87*
Y48300D02*
D03*
Y36500D02*
D03*
D88*
X155050Y211130D02*
D03*
X135050D02*
D03*
X145050D02*
D03*
D89*
X165050D02*
D03*
D90*
X55750Y239650D02*
D03*
Y229650D02*
D03*
X85750Y239650D02*
D03*
X65750D02*
D03*
X75750D02*
D03*
X95750Y229650D02*
D03*
X85750D02*
D03*
X65750D02*
D03*
X75750D02*
D03*
D91*
X95750Y239650D02*
D03*
D92*
X309040Y121465D02*
D03*
X319040D02*
D03*
X318725Y63415D02*
D03*
X308725D02*
D03*
X212550Y221093D02*
D03*
Y211093D02*
D03*
X184400Y227950D02*
D03*
Y237950D02*
D03*
D93*
X356299Y244094D02*
D03*
X23622Y15748D02*
D03*
X356299D02*
D03*
X23622Y244094D02*
D03*
D94*
X308865Y50300D02*
D03*
D95*
X318865D02*
D03*
D96*
X370012Y64260D02*
D03*
Y54260D02*
D03*
Y44260D02*
D03*
X10012Y224260D02*
D03*
Y214260D02*
D03*
Y204260D02*
D03*
Y194260D02*
D03*
Y184260D02*
D03*
Y174260D02*
D03*
Y164260D02*
D03*
Y154260D02*
D03*
Y144260D02*
D03*
Y134260D02*
D03*
Y124260D02*
D03*
Y114260D02*
D03*
Y104260D02*
D03*
Y94260D02*
D03*
Y84260D02*
D03*
Y74260D02*
D03*
Y64260D02*
D03*
Y54260D02*
D03*
Y44260D02*
D03*
Y34260D02*
D03*
X370012Y224260D02*
D03*
Y214260D02*
D03*
Y204260D02*
D03*
Y194260D02*
D03*
Y184260D02*
D03*
Y174260D02*
D03*
Y164260D02*
D03*
Y154260D02*
D03*
Y144260D02*
D03*
Y134260D02*
D03*
Y124260D02*
D03*
Y114260D02*
D03*
Y104260D02*
D03*
Y94260D02*
D03*
Y74260D02*
D03*
Y84260D02*
D03*
D97*
Y34260D02*
D03*
D98*
X209765Y188965D02*
D03*
X253760Y206215D02*
D03*
X322710Y76025D02*
D03*
M02*
