G04*
G04 #@! TF.GenerationSoftware,Altium Limited,Altium Designer,20.2.6 (244)*
G04*
G04 Layer_Color=255*
%FSLAX25Y25*%
%MOIN*%
G70*
G04*
G04 #@! TF.SameCoordinates,4AA97A5E-EA8F-4A6E-9BBD-7CD435F3AC8D*
G04*
G04*
G04 #@! TF.FilePolarity,Positive*
G04*
G01*
G75*
%ADD26R,0.03543X0.03937*%
%ADD103C,0.11800*%
%ADD104C,0.08000*%
%ADD105O,0.07000X0.09000*%
%ADD106R,0.07000X0.09000*%
%ADD107C,0.07000*%
%ADD108R,0.07000X0.07000*%
%ADD109C,0.04724*%
%ADD110C,0.19685*%
%ADD111R,0.07500X0.09000*%
%ADD112O,0.07500X0.09000*%
%ADD113C,0.07874*%
%ADD114R,0.07874X0.07874*%
G04:AMPARAMS|DCode=116|XSize=25.59mil|YSize=64.96mil|CornerRadius=1.92mil|HoleSize=0mil|Usage=FLASHONLY|Rotation=180.000|XOffset=0mil|YOffset=0mil|HoleType=Round|Shape=RoundedRectangle|*
%AMROUNDEDRECTD116*
21,1,0.02559,0.06112,0,0,180.0*
21,1,0.02175,0.06496,0,0,180.0*
1,1,0.00384,-0.01088,0.03056*
1,1,0.00384,0.01088,0.03056*
1,1,0.00384,0.01088,-0.03056*
1,1,0.00384,-0.01088,-0.03056*
%
%ADD116ROUNDEDRECTD116*%
D26*
X316881Y73530D02*
D03*
X310189D02*
D03*
D103*
X83230Y19492D02*
D03*
D104*
Y48300D02*
D03*
Y36500D02*
D03*
D105*
X155050Y211130D02*
D03*
X135050D02*
D03*
X145050D02*
D03*
D106*
X165050D02*
D03*
D107*
X55750Y239650D02*
D03*
Y229650D02*
D03*
X85750Y239650D02*
D03*
X65750D02*
D03*
X75750D02*
D03*
X95750Y229650D02*
D03*
X85750D02*
D03*
X65750D02*
D03*
X75750D02*
D03*
D108*
X95750Y239650D02*
D03*
D109*
X309040Y121465D02*
D03*
X319040D02*
D03*
X318725Y63415D02*
D03*
X308725D02*
D03*
X212550Y221093D02*
D03*
Y211093D02*
D03*
X184400Y227950D02*
D03*
Y237950D02*
D03*
D110*
X356299Y244094D02*
D03*
X23622Y15748D02*
D03*
X356299D02*
D03*
X23622Y244094D02*
D03*
D111*
X308865Y50300D02*
D03*
D112*
X318865D02*
D03*
D113*
X370012Y64260D02*
D03*
Y54260D02*
D03*
Y44260D02*
D03*
X10012Y224260D02*
D03*
Y214260D02*
D03*
Y204260D02*
D03*
Y194260D02*
D03*
Y184260D02*
D03*
Y174260D02*
D03*
Y164260D02*
D03*
Y154260D02*
D03*
Y144260D02*
D03*
Y134260D02*
D03*
Y124260D02*
D03*
Y114260D02*
D03*
Y104260D02*
D03*
Y94260D02*
D03*
Y84260D02*
D03*
Y74260D02*
D03*
Y64260D02*
D03*
Y54260D02*
D03*
Y44260D02*
D03*
Y34260D02*
D03*
X370012Y224260D02*
D03*
Y214260D02*
D03*
Y204260D02*
D03*
Y194260D02*
D03*
Y184260D02*
D03*
Y174260D02*
D03*
Y164260D02*
D03*
Y154260D02*
D03*
Y144260D02*
D03*
Y134260D02*
D03*
Y124260D02*
D03*
Y114260D02*
D03*
Y104260D02*
D03*
Y94260D02*
D03*
Y74260D02*
D03*
Y84260D02*
D03*
D114*
Y34260D02*
D03*
D116*
X320820Y82778D02*
D03*
X315820D02*
D03*
X310820D02*
D03*
X305820D02*
D03*
X320820Y105022D02*
D03*
X315820D02*
D03*
X310820D02*
D03*
X305820D02*
D03*
M02*
