G04*
G04 #@! TF.GenerationSoftware,Altium Limited,Altium Designer,20.2.6 (244)*
G04*
G04 Layer_Color=8388736*
%FSLAX25Y25*%
%MOIN*%
G70*
G04*
G04 #@! TF.SameCoordinates,CD3EE1CD-C2C2-42AE-8C08-74B820A2CE99*
G04*
G04*
G04 #@! TF.FilePolarity,Positive*
G04*
G01*
G75*
%ADD12C,0.00787*%
D12*
X283875Y242806D02*
X287025D01*
X283875Y236507D02*
Y242806D01*
Y236507D02*
X287025D01*
Y242806D01*
X240314Y110075D02*
X246613D01*
X240314D02*
Y113225D01*
X246613D01*
Y110075D02*
Y113225D01*
X325375Y183714D02*
Y190013D01*
X322225Y183714D02*
X325375D01*
X322225D02*
Y190013D01*
X325375D01*
X84525Y139964D02*
X87675D01*
Y146263D01*
X84525D02*
X87675D01*
X84525Y139964D02*
Y146263D01*
X149629Y21375D02*
Y24525D01*
Y21375D02*
X155929D01*
Y24525D01*
X149629D02*
X155929D01*
X171486Y134975D02*
Y138125D01*
X165187D02*
X171486D01*
X165187Y134975D02*
Y138125D01*
Y134975D02*
X171486D01*
X145105Y116115D02*
X148255D01*
Y122415D01*
X145105D02*
X148255D01*
X145105Y116115D02*
Y122415D01*
X148155Y84710D02*
X151305D01*
Y91010D01*
X148155D02*
X151305D01*
X148155Y84710D02*
Y91010D01*
X229886Y51575D02*
Y54725D01*
X223587D02*
X229886D01*
X223587Y51575D02*
Y54725D01*
Y51575D02*
X229886D01*
X246613Y95425D02*
Y98575D01*
X240314D02*
X246613D01*
X240314Y95425D02*
Y98575D01*
Y95425D02*
X246613D01*
Y87525D02*
Y90675D01*
X240314D02*
X246613D01*
X240314Y87525D02*
Y90675D01*
Y87525D02*
X246613D01*
X237590Y62040D02*
X243890D01*
X237590D02*
Y65190D01*
X243890D01*
Y62040D02*
Y65190D01*
X180723Y27821D02*
Y33923D01*
X177377Y27821D02*
X180723D01*
X177377D02*
Y33923D01*
X180723D01*
X200678Y15406D02*
Y22099D01*
X204222D01*
Y15406D02*
Y22099D01*
X200678Y15406D02*
X204222D01*
X189578Y15356D02*
Y22049D01*
X193122D01*
Y15356D02*
Y22049D01*
X189578Y15356D02*
X193122D01*
X176828Y15901D02*
Y22594D01*
X180372D01*
Y15901D02*
Y22594D01*
X176828Y15901D02*
X180372D01*
X105604Y100178D02*
Y103722D01*
Y100178D02*
X112296D01*
Y103722D01*
X105604D02*
X112296D01*
X88312Y99530D02*
Y110948D01*
X82013D02*
X88312D01*
X82013Y99530D02*
Y110948D01*
Y99530D02*
X88312D01*
X65249Y107178D02*
Y110722D01*
X58556D02*
X65249D01*
X58556Y107178D02*
Y110722D01*
Y107178D02*
X65249D01*
M02*
