G04*
G04 #@! TF.GenerationSoftware,Altium Limited,Altium Designer,20.2.6 (244)*
G04*
G04 Layer_Color=16711935*
%FSLAX25Y25*%
%MOIN*%
G70*
G04*
G04 #@! TF.SameCoordinates,CD3EE1CD-C2C2-42AE-8C08-74B820A2CE99*
G04*
G04*
G04 #@! TF.FilePolarity,Positive*
G04*
G01*
G75*
%ADD13C,0.01000*%
%ADD15C,0.00394*%
%ADD117C,0.04000*%
%ADD118C,0.00236*%
D13*
X1012Y232760D02*
X383012D01*
Y20260D02*
Y232760D01*
X512Y20260D02*
X383012D01*
X512D02*
Y232260D01*
X1012Y232760D01*
D15*
X311958Y99400D02*
X313926D01*
X314320Y99006D01*
Y98219D01*
X313926Y97826D01*
X311958D01*
X314320Y95858D02*
X311958D01*
X313139Y97039D01*
Y95464D01*
D117*
X367299Y244094D02*
X367254Y245095D01*
X367117Y246087D01*
X366891Y247062D01*
X366578Y248013D01*
X366179Y248932D01*
X365698Y249810D01*
X365139Y250641D01*
X364507Y251418D01*
X363807Y252134D01*
X363045Y252783D01*
X362227Y253361D01*
X361360Y253861D01*
X360451Y254281D01*
X359507Y254616D01*
X358537Y254864D01*
X357549Y255023D01*
X356550Y255092D01*
X355549Y255069D01*
X354554Y254955D01*
X353573Y254751D01*
X352615Y254459D01*
X351688Y254081D01*
X350799Y253621D01*
X349956Y253081D01*
X349165Y252467D01*
X348433Y251784D01*
X347766Y251037D01*
X347170Y250232D01*
X346650Y249376D01*
X346210Y248477D01*
X345853Y247541D01*
X345583Y246577D01*
X345402Y245592D01*
X345311Y244595D01*
Y243594D01*
X345402Y242597D01*
X345583Y241612D01*
X345853Y240648D01*
X346210Y239712D01*
X346650Y238813D01*
X347170Y237957D01*
X347766Y237153D01*
X348433Y236405D01*
X349165Y235722D01*
X349956Y235108D01*
X350799Y234568D01*
X351688Y234107D01*
X352615Y233730D01*
X353573Y233438D01*
X354554Y233234D01*
X355549Y233120D01*
X356550Y233097D01*
X357549Y233166D01*
X358537Y233325D01*
X359507Y233573D01*
X360451Y233908D01*
X361360Y234328D01*
X362227Y234828D01*
X363045Y235406D01*
X363807Y236055D01*
X364507Y236771D01*
X365139Y237548D01*
X365698Y238379D01*
X366179Y239257D01*
X366578Y240176D01*
X366891Y241127D01*
X367117Y242102D01*
X367254Y243094D01*
X367299Y244094D01*
X34622Y15748D02*
X34576Y16748D01*
X34440Y17740D01*
X34214Y18716D01*
X33900Y19667D01*
X33501Y20585D01*
X33021Y21463D01*
X32462Y22294D01*
X31830Y23071D01*
X31130Y23787D01*
X30368Y24437D01*
X29550Y25014D01*
X28683Y25515D01*
X27774Y25934D01*
X26830Y26270D01*
X25860Y26518D01*
X24871Y26677D01*
X23872Y26745D01*
X22871Y26722D01*
X21877Y26609D01*
X20896Y26405D01*
X19938Y26113D01*
X19011Y25735D01*
X18122Y25274D01*
X17279Y24735D01*
X16488Y24121D01*
X15756Y23437D01*
X15089Y22690D01*
X14493Y21885D01*
X13973Y21030D01*
X13533Y20130D01*
X13176Y19195D01*
X12906Y18231D01*
X12724Y17246D01*
X12633Y16249D01*
Y15247D01*
X12724Y14250D01*
X12906Y13265D01*
X13176Y12301D01*
X13533Y11366D01*
X13973Y10466D01*
X14493Y9611D01*
X15089Y8806D01*
X15756Y8059D01*
X16488Y7375D01*
X17279Y6761D01*
X18122Y6222D01*
X19011Y5761D01*
X19938Y5383D01*
X20896Y5091D01*
X21877Y4887D01*
X22871Y4774D01*
X23872Y4751D01*
X24871Y4819D01*
X25860Y4978D01*
X26830Y5226D01*
X27774Y5562D01*
X28683Y5981D01*
X29550Y6482D01*
X30368Y7059D01*
X31130Y7709D01*
X31830Y8425D01*
X32462Y9202D01*
X33021Y10033D01*
X33501Y10911D01*
X33900Y11829D01*
X34214Y12780D01*
X34440Y13756D01*
X34576Y14748D01*
X34622Y15748D01*
X367299Y15748D02*
X367254Y16748D01*
X367117Y17740D01*
X366891Y18716D01*
X366578Y19667D01*
X366179Y20585D01*
X365698Y21463D01*
X365139Y22294D01*
X364507Y23071D01*
X363807Y23787D01*
X363045Y24437D01*
X362227Y25014D01*
X361360Y25515D01*
X360451Y25934D01*
X359507Y26270D01*
X358537Y26518D01*
X357549Y26677D01*
X356550Y26745D01*
X355549Y26722D01*
X354554Y26609D01*
X353573Y26405D01*
X352615Y26113D01*
X351688Y25735D01*
X350799Y25274D01*
X349956Y24735D01*
X349165Y24121D01*
X348433Y23437D01*
X347766Y22690D01*
X347170Y21885D01*
X346650Y21030D01*
X346210Y20130D01*
X345853Y19195D01*
X345583Y18231D01*
X345402Y17246D01*
X345311Y16249D01*
Y15247D01*
X345402Y14250D01*
X345583Y13265D01*
X345853Y12301D01*
X346210Y11366D01*
X346650Y10466D01*
X347170Y9611D01*
X347766Y8806D01*
X348433Y8059D01*
X349165Y7375D01*
X349956Y6761D01*
X350799Y6222D01*
X351688Y5761D01*
X352615Y5383D01*
X353573Y5091D01*
X354554Y4887D01*
X355549Y4774D01*
X356550Y4751D01*
X357549Y4819D01*
X358537Y4978D01*
X359507Y5226D01*
X360451Y5562D01*
X361360Y5981D01*
X362227Y6482D01*
X363045Y7059D01*
X363807Y7709D01*
X364507Y8425D01*
X365139Y9202D01*
X365698Y10033D01*
X366179Y10911D01*
X366578Y11829D01*
X366891Y12780D01*
X367117Y13756D01*
X367254Y14748D01*
X367299Y15748D01*
X34622Y244094D02*
X34576Y245095D01*
X34440Y246087D01*
X34214Y247062D01*
X33900Y248013D01*
X33501Y248932D01*
X33021Y249810D01*
X32462Y250641D01*
X31830Y251418D01*
X31130Y252134D01*
X30368Y252783D01*
X29550Y253361D01*
X28683Y253861D01*
X27774Y254281D01*
X26830Y254616D01*
X25860Y254864D01*
X24871Y255023D01*
X23872Y255092D01*
X22871Y255069D01*
X21877Y254955D01*
X20896Y254751D01*
X19938Y254459D01*
X19011Y254081D01*
X18122Y253621D01*
X17279Y253081D01*
X16488Y252467D01*
X15756Y251784D01*
X15089Y251037D01*
X14493Y250232D01*
X13973Y249376D01*
X13533Y248477D01*
X13176Y247541D01*
X12906Y246577D01*
X12724Y245592D01*
X12633Y244595D01*
Y243594D01*
X12724Y242597D01*
X12906Y241612D01*
X13176Y240648D01*
X13533Y239712D01*
X13973Y238813D01*
X14493Y237957D01*
X15089Y237153D01*
X15756Y236405D01*
X16488Y235722D01*
X17279Y235108D01*
X18122Y234568D01*
X19011Y234107D01*
X19938Y233730D01*
X20896Y233438D01*
X21877Y233234D01*
X22871Y233120D01*
X23872Y233097D01*
X24871Y233166D01*
X25860Y233325D01*
X26830Y233573D01*
X27774Y233908D01*
X28683Y234328D01*
X29550Y234828D01*
X30368Y235406D01*
X31130Y236055D01*
X31830Y236771D01*
X32462Y237548D01*
X33021Y238379D01*
X33501Y239257D01*
X33900Y240176D01*
X34214Y241127D01*
X34440Y242102D01*
X34576Y243094D01*
X34622Y244094D01*
D118*
X250025Y172513D02*
Y173825D01*
X249762Y174087D01*
X249237D01*
X248975Y173825D01*
Y172513D01*
X248450Y174087D02*
X247926D01*
X248188D01*
Y172513D01*
X248450Y172775D01*
M02*
