M48
;Layer_Color=9474304
;FILE_FORMAT=2:4
INCH,TZ
;TYPE=PLATED
T1F00S00C0.0118
T2F00S00C0.0350
T3F00S00C0.0354
T4F00S00C0.0394
T5F00S00C0.0400
T6F00S00C0.0402
T7F00S00C0.1220
;TYPE=NON_PLATED
T8F00S00C0.1180
%
T01
X3937Y1969
X5906
X6890Y3937
X4921
X3937Y5906
X1969
X2869Y8970
X3205Y8917
X3503Y8739
X3775Y8455
X6394Y9120
X6890Y7874
X8858
X9525Y9120
X10733Y9589
X11811Y9843
X13780
X14382Y8493
X13943Y7050
X12795Y7874
X10827
Y3937
X12795
X14764
X14320Y4595
X13780Y1969
X11811
X15419Y10468
X14755Y12974
X11950Y15136
X9843Y13780
X8858Y11811
X6890
X6488Y11594
X1969Y13780
X16999Y13092
X17207Y15351
X18586Y14278
X19048Y13748
X19551Y13470
X20219Y14515
X20442Y14793
X21501Y14340
X22091
X22709Y12923
X22723Y10530
X23514Y10388
X23495Y10052
X23107Y9206
X22978Y8887
X22869Y9443
X23535Y8559
X24935Y8095
X24781Y10407
X25535Y10100
X27559Y9843
X29528
X29629Y9534
X30387Y11235
X31061Y11238
X29528Y13780
X27559
X25591
X25028Y15600
X26575Y11811
X28543Y7874
X29434Y7138
X29528Y5906
X27559
X25591
X26575Y3937
X28543
X30512
X29528Y1969
X27559
X25591
X23622
X21654
X19685
X20669Y3937
X22638
X24606
X23149Y6463
X20022Y5954
X19940Y5365
X19203Y5342
X19350Y4766
X18292Y5388
X17809Y5857
X17293Y5846
X16980Y5970
X16514Y6485
X17153Y7747
X18701Y7874
X20669
Y11811
X18701
X16732Y3937
X30372Y7546
X32271Y7602
X32480Y7874
X33465Y5906
Y1969
X36417Y7874
X35433Y13780
X33370Y15213
X31459Y14826
X31496Y13780
X31570Y11265
X32175Y11214
X31496Y9843
Y17717
X33465
X35277Y17656
X35433Y21654
X31496
X32480Y23622
Y19685
X28543
X28110Y18420
X27445Y17428
X25995Y17400
X25808Y18051
X25066Y18459
X23682Y17989
X23360Y17413
X21870Y17249
X21654Y17717
X21911Y18243
X20977Y18896
X19685Y17717
X19899Y15667
X18265Y15766
X18399Y16205
X16732Y15748
X17510Y18010
X17768Y18506
X18095Y19485
X18701Y19685
X16732
X17717Y21654
X19685
X21654
X23622
X24755Y21317
X25591Y21654
X25376Y20622
X27629Y20484
X27722Y15684
X28089Y15692
X28543Y15748
X26575
X24354Y15632
X22005Y16210
X19516Y23730
X25165Y23585
X30512Y23622
X14764
X12795
X10827
X11811Y21654
X11889Y20724
X12795Y19685
X10827
X10936Y18559
X11683Y18026
X12795Y15748
X14648Y16722
X15592Y16693
X6890Y15748
X5826Y15759
X2953Y15748
X4332Y18025
X3976Y18558
X2953Y19685
X3937Y21654
X1969
X6310Y21970
X7707Y21985
X9105Y22000
X6890Y19685
T02
X16505Y21113
X15505
X14505
X13505
T03
X30872Y6342
X30904Y12147
X31904
X31872Y6342
X21255Y21109
Y22109
X18440Y22795
Y23795
T04
X9966Y1814
T05
X8323Y3650
Y4830
X30886Y5030
X31886
X9575Y22965
Y23965
X8575
X7575
X6575
X5575
Y22965
X6575
X7575
X8575
T06
X1001Y3426
Y4426
Y5426
Y6426
Y7426
Y8426
Y9426
Y10426
Y11426
Y12426
Y13426
Y14426
Y15426
X37001
Y14426
Y13426
Y12426
Y11426
Y10426
Y9426
Y8426
Y7426
Y6426
Y5426
Y4426
Y3426
Y16426
Y17426
Y18426
Y19426
Y20426
Y21426
Y22426
X1001
Y21426
Y20426
Y19426
Y18426
Y17426
Y16426
T07
X2362Y1575
X35630
Y24409
X2362
T08
X8323Y1949
M30
