G04*
G04 #@! TF.GenerationSoftware,Altium Limited,Altium Designer,20.2.6 (244)*
G04*
G04 Layer_Color=16711935*
%FSLAX25Y25*%
%MOIN*%
G70*
G04*
G04 #@! TF.SameCoordinates,CD3EE1CD-C2C2-42AE-8C08-74B820A2CE99*
G04*
G04*
G04 #@! TF.FilePolarity,Negative*
G04*
G01*
G75*
%ADD58R,0.03937X0.04331*%
%ADD86O,0.07394X0.09394*%
%ADD87R,0.07394X0.09394*%
%ADD88C,0.07394*%
%ADD89R,0.07394X0.07394*%
%ADD90C,0.05118*%
%ADD91C,0.20079*%
%ADD92R,0.07894X0.09394*%
%ADD93O,0.07894X0.09394*%
%ADD94C,0.08268*%
%ADD95R,0.08268X0.08268*%
%ADD96C,0.08661*%
%ADD97C,0.09449*%
%ADD98C,0.02756*%
G04:AMPARAMS|DCode=116|XSize=29.53mil|YSize=68.9mil|CornerRadius=3.89mil|HoleSize=0mil|Usage=FLASHONLY|Rotation=180.000|XOffset=0mil|YOffset=0mil|HoleType=Round|Shape=RoundedRectangle|*
%AMROUNDEDRECTD116*
21,1,0.02953,0.06112,0,0,180.0*
21,1,0.02175,0.06890,0,0,180.0*
1,1,0.00778,-0.01088,0.03056*
1,1,0.00778,0.01088,0.03056*
1,1,0.00778,0.01088,-0.03056*
1,1,0.00778,-0.01088,-0.03056*
%
%ADD116ROUNDEDRECTD116*%
D58*
X316881Y73530D02*
D03*
X310189D02*
D03*
D86*
X155050Y211130D02*
D03*
X135050D02*
D03*
X145050D02*
D03*
D87*
X165050D02*
D03*
D88*
X55750Y239650D02*
D03*
Y229650D02*
D03*
X85750Y239650D02*
D03*
X65750D02*
D03*
X75750D02*
D03*
X95750Y229650D02*
D03*
X85750D02*
D03*
X65750D02*
D03*
X75750D02*
D03*
D89*
X95750Y239650D02*
D03*
D90*
X309040Y121465D02*
D03*
X319040D02*
D03*
X318725Y63415D02*
D03*
X308725D02*
D03*
X212550Y221093D02*
D03*
Y211093D02*
D03*
X184400Y227950D02*
D03*
Y237950D02*
D03*
D91*
X356299Y244094D02*
D03*
X23622Y15748D02*
D03*
X356299D02*
D03*
X23622Y244094D02*
D03*
D92*
X308865Y50300D02*
D03*
D93*
X318865D02*
D03*
D94*
X370012Y64260D02*
D03*
Y54260D02*
D03*
Y44260D02*
D03*
X10012Y224260D02*
D03*
Y214260D02*
D03*
Y204260D02*
D03*
Y194260D02*
D03*
Y184260D02*
D03*
Y174260D02*
D03*
Y164260D02*
D03*
Y154260D02*
D03*
Y144260D02*
D03*
Y134260D02*
D03*
Y124260D02*
D03*
Y114260D02*
D03*
Y104260D02*
D03*
Y94260D02*
D03*
Y84260D02*
D03*
Y74260D02*
D03*
Y64260D02*
D03*
Y54260D02*
D03*
Y44260D02*
D03*
Y34260D02*
D03*
X370012Y224260D02*
D03*
Y214260D02*
D03*
Y204260D02*
D03*
Y194260D02*
D03*
Y184260D02*
D03*
Y174260D02*
D03*
Y164260D02*
D03*
Y154260D02*
D03*
Y144260D02*
D03*
Y134260D02*
D03*
Y124260D02*
D03*
Y114260D02*
D03*
Y104260D02*
D03*
Y94260D02*
D03*
Y74260D02*
D03*
Y84260D02*
D03*
D95*
Y34260D02*
D03*
D96*
X68617Y73631D02*
D03*
X99798D02*
D03*
D97*
X113735Y13788D02*
D03*
X54680D02*
D03*
D98*
X209765Y188965D02*
D03*
X253760Y206215D02*
D03*
X322710Y76025D02*
D03*
D116*
X320820Y82778D02*
D03*
X315820D02*
D03*
X310820D02*
D03*
X305820D02*
D03*
X320820Y105022D02*
D03*
X315820D02*
D03*
X310820D02*
D03*
X305820D02*
D03*
M02*
