G04*
G04 #@! TF.GenerationSoftware,Altium Limited,Altium Designer,20.2.6 (244)*
G04*
G04 Layer_Color=0*
%FSLAX25Y25*%
%MOIN*%
G70*
G04*
G04 #@! TF.SameCoordinates,CD3EE1CD-C2C2-42AE-8C08-74B820A2CE99*
G04*
G04*
G04 #@! TF.FilePolarity,Positive*
G04*
G01*
G75*
%ADD15C,0.00394*%
D15*
X283482Y239657D02*
X287419D01*
X285450Y237688D02*
Y241625D01*
X241495Y111650D02*
X245432D01*
X243464Y109681D02*
Y113619D01*
X323800Y184895D02*
Y188832D01*
X321831Y186864D02*
X325768D01*
X84131Y143114D02*
X88068D01*
X86100Y141145D02*
Y145082D01*
X152779Y20981D02*
Y24918D01*
X150811Y22950D02*
X154748D01*
X168336Y134581D02*
Y138519D01*
X166368Y136550D02*
X170305D01*
X144711Y119265D02*
X148649D01*
X146680Y117297D02*
Y121233D01*
X147761Y87860D02*
X151699D01*
X149730Y85891D02*
Y89828D01*
X226736Y51182D02*
Y55119D01*
X224768Y53150D02*
X228705D01*
X243464Y95031D02*
Y98968D01*
X241495Y97000D02*
X245432D01*
X243464Y87132D02*
Y91069D01*
X241495Y89100D02*
X245432D01*
X238772Y63615D02*
X242708D01*
X240740Y61646D02*
Y65583D01*
X179050Y28903D02*
Y32840D01*
X177082Y30872D02*
X181018D01*
X202450Y16784D02*
Y20721D01*
X200482Y18753D02*
X204418D01*
X191350Y16734D02*
Y20671D01*
X189382Y18703D02*
X193318D01*
X178600Y17279D02*
Y21216D01*
X176631Y19247D02*
X180569D01*
X108950Y99981D02*
Y103919D01*
X106982Y101950D02*
X110918D01*
X85162Y103270D02*
Y107207D01*
X83194Y105239D02*
X87131D01*
X61903Y106982D02*
Y110918D01*
X59934Y108950D02*
X63871D01*
M02*
