G04*
G04 #@! TF.GenerationSoftware,Altium Limited,Altium Designer,20.2.6 (244)*
G04*
G04 Layer_Color=32768*
%FSLAX25Y25*%
%MOIN*%
G70*
G04*
G04 #@! TF.SameCoordinates,CD3EE1CD-C2C2-42AE-8C08-74B820A2CE99*
G04*
G04*
G04 #@! TF.FilePolarity,Positive*
G04*
G01*
G75*
%ADD15C,0.00394*%
%ADD122C,0.00197*%
D15*
X106619Y109450D02*
X110359D01*
X108489Y107580D02*
Y111320D01*
X130828Y159389D02*
X134372D01*
X132600Y157618D02*
Y161161D01*
X131078Y139039D02*
X134622D01*
X132850Y137268D02*
Y140811D01*
X237382Y44679D02*
X241318D01*
X239350Y42710D02*
Y46647D01*
X327765Y119283D02*
Y122827D01*
X325993Y121055D02*
X329537D01*
X300150Y118828D02*
Y122372D01*
X298378Y120600D02*
X301922D01*
X283531Y212772D02*
X287469D01*
X285500Y210803D02*
Y214740D01*
X55801Y202097D02*
Y208003D01*
X68006Y202097D02*
Y208003D01*
X55801D02*
X68006D01*
X55801Y202097D02*
X68006D01*
X60034Y205050D02*
X63774D01*
X61904Y203180D02*
Y206920D01*
X72601Y201797D02*
Y207703D01*
X84806Y201797D02*
Y207703D01*
X72601D02*
X84806D01*
X72601Y201797D02*
X84806D01*
X76833Y204750D02*
X80574D01*
X78703Y202880D02*
Y206620D01*
X89308Y202147D02*
Y208053D01*
X101513Y202147D02*
Y208053D01*
X89308D02*
X101513D01*
X89308Y202147D02*
X101513D01*
X93541Y205100D02*
X97281D01*
X95411Y203230D02*
Y206970D01*
X104101Y202097D02*
Y208003D01*
X116306Y202097D02*
Y208003D01*
X104101D02*
X116306D01*
X104101Y202097D02*
X116306D01*
X108334Y205050D02*
X112074D01*
X110204Y203180D02*
Y206920D01*
X206194Y191640D02*
Y197546D01*
X218399Y191640D02*
Y197546D01*
X206194D02*
X218399D01*
X206194Y191640D02*
X218399D01*
X210426Y194593D02*
X214166D01*
X212297Y192723D02*
Y196463D01*
X251245Y224241D02*
Y228179D01*
X249276Y226210D02*
X253214D01*
X248147Y116092D02*
Y121998D01*
X235943Y116092D02*
Y121998D01*
Y116092D02*
X248147D01*
X235943Y121998D02*
X248147D01*
X240175Y119045D02*
X243915D01*
X242045Y117175D02*
Y120915D01*
X200228Y30803D02*
X203772D01*
X202000Y29031D02*
Y32574D01*
X191400Y29181D02*
Y32724D01*
X189628Y30953D02*
X193172D01*
X311351Y93900D02*
X315288D01*
X313320Y91931D02*
Y95868D01*
X212950Y239274D02*
Y243211D01*
X210981Y241243D02*
X214918D01*
X319637Y70577D02*
Y76483D01*
X307433Y70577D02*
Y76483D01*
X319637D01*
X307433Y70577D02*
X319637D01*
X311665Y73530D02*
X315405D01*
X313535Y71660D02*
Y75400D01*
X189781Y96550D02*
X193719D01*
X191750Y94582D02*
Y98519D01*
X246875Y171332D02*
Y175268D01*
X244906Y173300D02*
X248844D01*
X209899Y169347D02*
Y175253D01*
X197694Y169347D02*
Y175253D01*
Y169347D02*
X209899D01*
X197694Y175253D02*
X209899D01*
X201926Y172300D02*
X205666D01*
X203797Y170430D02*
Y174170D01*
X209699Y158547D02*
Y164453D01*
X197494Y158547D02*
Y164453D01*
Y158547D02*
X209699D01*
X197494Y164453D02*
X209699D01*
X201726Y161500D02*
X205467D01*
X203596Y159630D02*
Y163370D01*
X215580Y43150D02*
X219320D01*
X217450Y41280D02*
Y45020D01*
X220403Y37048D02*
Y49253D01*
X214497Y37048D02*
Y49253D01*
X220403D01*
X214497Y37048D02*
X220403D01*
X288344Y160547D02*
Y166453D01*
X300549Y160547D02*
Y166453D01*
X288344D02*
X300549D01*
X288344Y160547D02*
X300549D01*
X292576Y163500D02*
X296317D01*
X294446Y161630D02*
Y165370D01*
X288301Y171747D02*
Y177653D01*
X300506Y171747D02*
Y177653D01*
X288301D02*
X300506D01*
X288301Y171747D02*
X300506D01*
X292533Y174700D02*
X296274D01*
X294404Y172830D02*
Y176570D01*
X288001Y182447D02*
Y188353D01*
X300206Y182447D02*
Y188353D01*
X288001D02*
X300206D01*
X288001Y182447D02*
X300206D01*
X292233Y185400D02*
X295974D01*
X294104Y183530D02*
Y187270D01*
X282482Y66615D02*
X286419D01*
X284451Y64647D02*
Y68584D01*
X154691Y42666D02*
Y44634D01*
X153707Y43650D02*
X155675D01*
X153697Y31532D02*
Y35469D01*
X151728Y33500D02*
X155665D01*
X322230Y164953D02*
X325970D01*
X324100Y163084D02*
Y166824D01*
X321147Y158851D02*
Y171056D01*
X327053Y158851D02*
Y171056D01*
X321147Y158851D02*
X327053D01*
X321147Y171056D02*
X327053D01*
X342941Y66730D02*
X346879D01*
X344910Y64762D02*
Y68699D01*
X326197Y80592D02*
X332103D01*
X326197Y92797D02*
X332103D01*
X326197Y80592D02*
Y92797D01*
X332103Y80592D02*
Y92797D01*
X329150Y84824D02*
Y88565D01*
X327280Y86695D02*
X331020D01*
X326447Y97241D02*
X332353D01*
X326447Y109446D02*
X332353D01*
X326447Y97241D02*
Y109446D01*
X332353Y97241D02*
Y109446D01*
X329400Y101474D02*
Y105214D01*
X327530Y103344D02*
X331270D01*
X293197Y92647D02*
X299103D01*
X293197Y80442D02*
X299103D01*
Y92647D01*
X293197Y80442D02*
Y92647D01*
X296150Y84674D02*
Y88415D01*
X294280Y86545D02*
X298020D01*
X203596Y181030D02*
Y184770D01*
X201726Y182900D02*
X205467D01*
X197494Y185853D02*
X209699D01*
X197494Y179947D02*
X209699D01*
X197494D02*
Y185853D01*
X209699Y179947D02*
Y185853D01*
X252757Y158642D02*
Y164548D01*
X240553Y158642D02*
Y164548D01*
Y158642D02*
X252757D01*
X240553Y164548D02*
X252757D01*
X244785Y161595D02*
X248525D01*
X246655Y159725D02*
Y163465D01*
X97194Y105739D02*
X101131D01*
X99162Y103770D02*
Y107707D01*
X70694Y105585D02*
X74631D01*
X72662Y103617D02*
Y107554D01*
X59891Y101739D02*
X63434D01*
X61662Y99967D02*
Y103510D01*
X116279Y149696D02*
Y153633D01*
X114310Y151664D02*
X118247D01*
X182030Y207854D02*
X185770D01*
X183900Y205983D02*
Y209724D01*
X186853Y201751D02*
Y213956D01*
X180947Y201751D02*
Y213956D01*
X186853D01*
X180947Y201751D02*
X186853D01*
X82480Y164746D02*
X86220D01*
X84350Y162876D02*
Y166616D01*
X87303Y158644D02*
Y170849D01*
X81397Y158644D02*
Y170849D01*
X87303D01*
X81397Y158644D02*
X87303D01*
D122*
X103174Y106497D02*
Y112403D01*
X113804Y106497D02*
Y112403D01*
X103174D02*
X113804D01*
X103174Y106497D02*
X113804D01*
X136734Y152697D02*
Y166082D01*
X128466Y152697D02*
Y166082D01*
X136734D01*
X128466Y152697D02*
X136734D01*
X128716Y132346D02*
Y145732D01*
X136984Y132346D02*
Y145732D01*
X128716Y132346D02*
X136984D01*
X128716Y145732D02*
X136984D01*
X245059Y33852D02*
Y55506D01*
X233641Y33852D02*
Y55506D01*
X245059D01*
X233641Y33852D02*
X245059D01*
X325009Y126173D02*
X330521D01*
X325009Y115937D02*
X330521D01*
Y126173D01*
X325009Y115937D02*
Y126173D01*
X297394Y125718D02*
X302906D01*
X297394Y115482D02*
X302906D01*
Y125718D01*
X297394Y115482D02*
Y125718D01*
X291209Y201945D02*
Y223598D01*
X279791Y201945D02*
Y223598D01*
X291209D01*
X279791Y201945D02*
X291209D01*
X221324Y193434D02*
X281166D01*
X221324D02*
Y258986D01*
X281166D01*
Y193434D02*
Y258986D01*
X198063Y24307D02*
Y37299D01*
X205937Y24307D02*
Y37299D01*
X198063Y24307D02*
X205937D01*
X198063Y37299D02*
X205937D01*
X187463Y37449D02*
X195337D01*
X187463Y24457D02*
X195337D01*
Y37449D01*
X187463Y24457D02*
Y37449D01*
X325131Y77561D02*
Y110239D01*
X301509Y77561D02*
Y110239D01*
Y77561D02*
X325131D01*
X301509Y110239D02*
X325131D01*
X209210Y234550D02*
X216690D01*
X209210Y247936D02*
X216690D01*
X209210Y234550D02*
Y247936D01*
X216690Y234550D02*
Y247936D01*
X158679Y63479D02*
Y129621D01*
X224821Y63479D02*
Y129621D01*
X158679D02*
X224821D01*
X158679Y63479D02*
X224821D01*
X242249Y178418D02*
X251501D01*
X242249Y168182D02*
X251501D01*
X242249D02*
Y178418D01*
X251501Y168182D02*
Y178418D01*
X292029Y59725D02*
Y73505D01*
X276872Y59725D02*
Y73505D01*
Y59725D02*
X292029D01*
X276872Y73505D02*
X292029D01*
X149179Y41682D02*
Y45619D01*
Y41682D02*
X160203D01*
Y45619D01*
X149179D02*
X160203D01*
X147003Y29760D02*
X160389D01*
X147003Y37240D02*
X160389D01*
Y29760D02*
Y37240D01*
X147003Y29760D02*
Y37240D01*
X337331Y59840D02*
Y73620D01*
X352489Y59840D02*
Y73620D01*
X337331D02*
X352489D01*
X337331Y59840D02*
X352489D01*
X95422Y99046D02*
Y112432D01*
X102903Y99046D02*
Y112432D01*
X95422Y99046D02*
X102903D01*
X95422Y112432D02*
X102903D01*
X76402Y98892D02*
Y112278D01*
X68922Y98892D02*
Y112278D01*
X76402D01*
X68922Y98892D02*
X76402D01*
X68159Y97802D02*
Y105676D01*
X55166Y97802D02*
Y105676D01*
Y97802D02*
X68159D01*
X55166Y105676D02*
X68159D01*
X102401Y133259D02*
X130157D01*
X102401Y170070D02*
X130157D01*
X102401Y133259D02*
Y170070D01*
X130157Y133259D02*
Y170070D01*
M02*
