G04*
G04 #@! TF.GenerationSoftware,Altium Limited,Altium Designer,20.2.6 (244)*
G04*
G04 Layer_Color=65535*
%FSLAX25Y25*%
%MOIN*%
G70*
G04*
G04 #@! TF.SameCoordinates,CD3EE1CD-C2C2-42AE-8C08-74B820A2CE99*
G04*
G04*
G04 #@! TF.FilePolarity,Positive*
G04*
G01*
G75*
%ADD10C,0.02000*%
%ADD11C,0.00984*%
%ADD12C,0.00787*%
%ADD13C,0.01000*%
%ADD14C,0.02362*%
%ADD15C,0.00394*%
%ADD16C,0.01200*%
%ADD17C,0.00900*%
%ADD18C,0.00600*%
D10*
X96750Y255650D02*
X96250Y256516D01*
X95250D01*
X94750Y255650D01*
X95250Y254784D01*
X96250D01*
X96750Y255650D01*
D11*
X263154Y191663D02*
X262416Y192089D01*
Y191237D01*
X263154Y191663D01*
X162616Y122829D02*
X161878Y123256D01*
Y122403D01*
X162616Y122829D01*
X289667Y59528D02*
X288929Y59955D01*
Y59102D01*
X289667Y59528D01*
X340678Y73817D02*
X339939Y74243D01*
Y73390D01*
X340678Y73817D01*
X95411Y101499D02*
X94673Y101925D01*
Y101073D01*
X95411Y101499D01*
X106535Y133751D02*
X105797Y134177D01*
Y133325D01*
X106535Y133751D01*
D12*
X229206Y257236D02*
X230156Y256895D01*
X231111Y256569D01*
X232071Y256259D01*
X233036Y255964D01*
X234005Y255684D01*
X234979Y255421D01*
X235958Y255173D01*
X236940Y254941D01*
X237925Y254724D01*
X238914Y254524D01*
X239906Y254340D01*
X240901Y254171D01*
X241899Y254019D01*
X242899Y253883D01*
X243900Y253762D01*
X244904Y253659D01*
X245909Y253571D01*
X246916Y253499D01*
X247923Y253444D01*
X248932Y253405D01*
X249940Y253382D01*
X250950Y253375D01*
X251958Y253385D01*
X252967Y253411D01*
X253975Y253453D01*
X254983Y253512D01*
X255989Y253587D01*
X256994Y253677D01*
X257997Y253784D01*
X258999Y253908D01*
X259998Y254047D01*
X260995Y254203D01*
X261990Y254374D01*
X262981Y254562D01*
X263969Y254765D01*
X264954Y254985D01*
X265936Y255220D01*
X266913Y255471D01*
X267886Y255738D01*
X289017Y234121D02*
Y245192D01*
X281883Y234121D02*
Y245192D01*
X237928Y115217D02*
X249000D01*
X237928Y108083D02*
X249000D01*
X242696Y43694D02*
Y45663D01*
X236003Y43694D02*
Y45663D01*
X320233Y181328D02*
Y192400D01*
X327367Y181328D02*
Y192400D01*
X288846Y211787D02*
Y213756D01*
X282154Y211787D02*
Y213756D01*
X61116Y206625D02*
X62691D01*
X61116Y203475D02*
X62691D01*
X77916Y206325D02*
X79491D01*
X77916Y203175D02*
X79491D01*
X94623Y206675D02*
X96198D01*
X94623Y203525D02*
X96198D01*
X109416Y206625D02*
X110991D01*
X109416Y203475D02*
X110991D01*
X211509Y196168D02*
X213084D01*
X211509Y193018D02*
X213084D01*
X82533Y137578D02*
Y148650D01*
X89667Y137578D02*
Y148650D01*
X279395Y201308D02*
Y250324D01*
X223095Y207411D02*
Y228080D01*
Y236741D02*
Y250324D01*
X267887Y255738D02*
X272544D01*
X147243Y26517D02*
X158315D01*
X147243Y19383D02*
X158315D01*
X162801Y132983D02*
X173872D01*
X162801Y140117D02*
X173872D01*
X143113Y113729D02*
Y124801D01*
X150247Y113729D02*
Y124801D01*
X146163Y82324D02*
Y93396D01*
X153297Y82324D02*
Y93396D01*
X221200Y49583D02*
X232272D01*
X221200Y56717D02*
X232272D01*
X237928Y93433D02*
X249000D01*
X237928Y100567D02*
X249000D01*
X237928Y85533D02*
X249000D01*
X237928Y92667D02*
X249000D01*
X235204Y67182D02*
X246276D01*
X235204Y60048D02*
X246276D01*
X248344Y117470D02*
Y120620D01*
X182396Y27919D02*
Y33824D01*
X175704Y27919D02*
Y33824D01*
X166750Y71550D02*
Y121550D01*
X216750Y71550D02*
Y121550D01*
X166750D02*
X216750D01*
X166750Y71550D02*
X216750D01*
X248548Y168674D02*
X251107D01*
X249040Y177926D02*
X249926D01*
X243824D02*
X244710D01*
X243824Y168674D02*
X244710D01*
X203009Y170725D02*
X204584D01*
X203009Y173875D02*
X204584D01*
X202809Y159925D02*
X204384D01*
X202809Y163075D02*
X204384D01*
X215875Y36851D02*
X219025D01*
X293659Y165075D02*
X295234D01*
X293659Y161925D02*
X295234D01*
X293616Y176275D02*
X295191D01*
X293616Y173125D02*
X295191D01*
X293316Y186975D02*
X294891D01*
X293316Y183825D02*
X294891D01*
X281695Y60710D02*
X285632D01*
X281695D02*
Y63859D01*
Y72521D02*
X285632D01*
X281695Y69371D02*
Y72521D01*
X322525Y164166D02*
Y165741D01*
X325675Y164166D02*
Y165741D01*
X343729Y72636D02*
X347666D01*
Y69486D02*
Y72636D01*
X343729Y60825D02*
X347666D01*
Y63974D01*
X327575Y80395D02*
X330725D01*
X327825Y97044D02*
X330975D01*
X294575Y92844D02*
X297725D01*
X202809Y184475D02*
X204384D01*
X202809Y181325D02*
X204384D01*
X252954Y160020D02*
Y163170D01*
X79651Y98546D02*
X90674D01*
X79651Y111932D02*
X90674D01*
X105846Y136310D02*
X107027D01*
X105452Y136704D02*
Y152255D01*
Y151074D02*
Y166625D01*
X105846Y167018D02*
X107027D01*
X125531D02*
X126712D01*
X127105Y151074D02*
Y166625D01*
X125531Y136310D02*
X126712D01*
X127105Y136704D02*
Y152255D01*
X105452Y136704D02*
X105846Y136310D01*
X105452Y166625D02*
X105846Y167018D01*
X126712D02*
X127105Y166625D01*
X126712Y136310D02*
X127105Y136704D01*
X185475Y207066D02*
Y208641D01*
X182325Y207066D02*
Y208641D01*
X85925Y163959D02*
Y165534D01*
X82775Y163959D02*
Y165534D01*
X44586Y210524D02*
Y207376D01*
X46161D01*
X46685Y207901D01*
Y209999D01*
X46161Y210524D01*
X44586D01*
X47735Y209999D02*
X48259Y210524D01*
X49309D01*
X49834Y209999D01*
Y209475D01*
X49309Y208950D01*
X48784D01*
X49309D01*
X49834Y208425D01*
Y207901D01*
X49309Y207376D01*
X48259D01*
X47735Y207901D01*
X37493Y257800D02*
X36968Y258324D01*
X35919D01*
X35394Y257800D01*
Y257275D01*
X35919Y256750D01*
X36968D01*
X37493Y256225D01*
Y255700D01*
X36968Y255176D01*
X35919D01*
X35394Y255700D01*
X38542Y258324D02*
X40641D01*
X39592D01*
Y255176D01*
X44840D02*
X45889D01*
X45364D01*
Y258324D01*
X44840D01*
X47463Y255176D02*
X48513D01*
X47988D01*
Y257275D01*
X47463D01*
X50087Y255176D02*
Y257275D01*
X51661D01*
X52186Y256750D01*
Y255176D01*
X53236D02*
Y258324D01*
Y256225D02*
X54810Y257275D01*
X53236Y256225D02*
X54810Y255176D01*
X59533Y258324D02*
Y255176D01*
X61107D01*
X61632Y255700D01*
Y257800D01*
X61107Y258324D01*
X59533D01*
X64780D02*
X62682D01*
Y255176D01*
X64780D01*
X62682Y256750D02*
X63731D01*
X65830Y258324D02*
Y255176D01*
X67404D01*
X67929Y255700D01*
Y256225D01*
X67404Y256750D01*
X65830D01*
X67404D01*
X67929Y257275D01*
Y257800D01*
X67404Y258324D01*
X65830D01*
X68979D02*
Y255700D01*
X69503Y255176D01*
X70553D01*
X71078Y255700D01*
Y258324D01*
X74226Y257800D02*
X73702Y258324D01*
X72652D01*
X72127Y257800D01*
Y255700D01*
X72652Y255176D01*
X73702D01*
X74226Y255700D01*
Y256750D01*
X73177D01*
X284849Y249394D02*
X284324Y249919D01*
X283275D01*
X282750Y249394D01*
Y247295D01*
X283275Y246771D01*
X284324D01*
X284849Y247295D01*
X285899Y246771D02*
X286948D01*
X286423D01*
Y249919D01*
X285899Y249394D01*
X290621Y249919D02*
X289572Y249394D01*
X288522Y248345D01*
Y247295D01*
X289047Y246771D01*
X290097D01*
X290621Y247295D01*
Y247820D01*
X290097Y248345D01*
X288522D01*
X84478Y155780D02*
X83954Y156304D01*
X82904D01*
X82379Y155780D01*
Y153681D01*
X82904Y153156D01*
X83954D01*
X84478Y153681D01*
X85528Y153156D02*
X86577D01*
X86053D01*
Y156304D01*
X85528Y155780D01*
X90251Y156304D02*
X88152D01*
Y154730D01*
X89201Y155255D01*
X89726D01*
X90251Y154730D01*
Y153681D01*
X89726Y153156D01*
X88676D01*
X88152Y153681D01*
X316448Y198720D02*
X315924Y199244D01*
X314874D01*
X314349Y198720D01*
Y196621D01*
X314874Y196096D01*
X315924D01*
X316448Y196621D01*
X317498Y196096D02*
X318547D01*
X318023D01*
Y199244D01*
X317498Y198720D01*
X321696Y196096D02*
Y199244D01*
X320122Y197670D01*
X322221D01*
X139228Y31109D02*
X138704Y31634D01*
X137654D01*
X137129Y31109D01*
Y29010D01*
X137654Y28486D01*
X138704D01*
X139228Y29010D01*
X140278Y28486D02*
X141327D01*
X140803D01*
Y31634D01*
X140278Y31109D01*
X145001Y28486D02*
X142902D01*
X145001Y30585D01*
Y31109D01*
X144476Y31634D01*
X143426D01*
X142902Y31109D01*
X166949Y145474D02*
X166424Y145999D01*
X165375D01*
X164850Y145474D01*
Y143375D01*
X165375Y142850D01*
X166424D01*
X166949Y143375D01*
X167999Y142850D02*
X169048D01*
X168523D01*
Y145999D01*
X167999Y145474D01*
X170622D02*
X171147Y145999D01*
X172197D01*
X172722Y145474D01*
Y143375D01*
X172197Y142850D01*
X171147D01*
X170622Y143375D01*
Y145474D01*
X146075Y134230D02*
X145551Y134754D01*
X144501D01*
X143976Y134230D01*
Y132131D01*
X144501Y131606D01*
X145551D01*
X146075Y132131D01*
X147125D02*
X147650Y131606D01*
X148699D01*
X149224Y132131D01*
Y134230D01*
X148699Y134754D01*
X147650D01*
X147125Y134230D01*
Y133705D01*
X147650Y133180D01*
X149224D01*
X149445Y101219D02*
X148921Y101744D01*
X147871D01*
X147346Y101219D01*
Y99120D01*
X147871Y98596D01*
X148921D01*
X149445Y99120D01*
X150495Y101219D02*
X151020Y101744D01*
X152069D01*
X152594Y101219D01*
Y100695D01*
X152069Y100170D01*
X152594Y99645D01*
Y99120D01*
X152069Y98596D01*
X151020D01*
X150495Y99120D01*
Y99645D01*
X151020Y100170D01*
X150495Y100695D01*
Y101219D01*
X151020Y100170D02*
X152069D01*
X225605Y62024D02*
X225080Y62549D01*
X224031D01*
X223506Y62024D01*
Y59926D01*
X224031Y59401D01*
X225080D01*
X225605Y59926D01*
X226655Y62549D02*
X228754D01*
Y62024D01*
X226655Y59926D01*
Y59401D01*
X255655Y112940D02*
X255131Y113464D01*
X254081D01*
X253556Y112940D01*
Y110840D01*
X254081Y110316D01*
X255131D01*
X255655Y110840D01*
X258804Y113464D02*
X257754Y112940D01*
X256705Y111890D01*
Y110840D01*
X257229Y110316D01*
X258279D01*
X258804Y110840D01*
Y111365D01*
X258279Y111890D01*
X256705D01*
X240985Y105354D02*
X240460Y105879D01*
X239411D01*
X238886Y105354D01*
Y103255D01*
X239411Y102731D01*
X240460D01*
X240985Y103255D01*
X244134Y105879D02*
X242035D01*
Y104305D01*
X243084Y104830D01*
X243609D01*
X244134Y104305D01*
Y103255D01*
X243609Y102731D01*
X242560D01*
X242035Y103255D01*
X256395Y90864D02*
X255871Y91389D01*
X254821D01*
X254296Y90864D01*
Y88766D01*
X254821Y88241D01*
X255871D01*
X256395Y88766D01*
X259019Y88241D02*
Y91389D01*
X257445Y89815D01*
X259544D01*
X240060Y72925D02*
X239535Y73449D01*
X238486D01*
X237961Y72925D01*
Y70825D01*
X238486Y70301D01*
X239535D01*
X240060Y70825D01*
X241110Y72925D02*
X241634Y73449D01*
X242684D01*
X243209Y72925D01*
Y72400D01*
X242684Y71875D01*
X242159D01*
X242684D01*
X243209Y71350D01*
Y70825D01*
X242684Y70301D01*
X241634D01*
X241110Y70825D01*
X289647Y3650D02*
X289122Y4174D01*
X288072D01*
X287548Y3650D01*
Y1551D01*
X288072Y1026D01*
X289122D01*
X289647Y1551D01*
X290696Y1026D02*
Y3125D01*
X291746Y4174D01*
X292795Y3125D01*
Y1026D01*
Y2600D01*
X290696D01*
X293845Y1026D02*
Y4174D01*
X295944Y1026D01*
Y4174D01*
X331466Y203864D02*
Y200716D01*
X333565D01*
X336714Y203340D02*
X336189Y203864D01*
X335139D01*
X334615Y203340D01*
Y201240D01*
X335139Y200716D01*
X336189D01*
X336714Y201240D01*
X337763Y203864D02*
Y200716D01*
X339338D01*
X339862Y201240D01*
Y203340D01*
X339338Y203864D01*
X337763D01*
X344060Y200716D02*
Y203864D01*
X345635D01*
X346160Y203340D01*
Y202290D01*
X345635Y201765D01*
X344060D01*
X345110D02*
X346160Y200716D01*
X349308Y203864D02*
X347209D01*
Y200716D01*
X349308D01*
X347209Y202290D02*
X348259D01*
X352457Y203340D02*
X351932Y203864D01*
X350882D01*
X350358Y203340D01*
Y202815D01*
X350882Y202290D01*
X351932D01*
X352457Y201765D01*
Y201240D01*
X351932Y200716D01*
X350882D01*
X350358Y201240D01*
X355605Y203864D02*
X353506D01*
Y200716D01*
X355605D01*
X353506Y202290D02*
X354556D01*
X356655Y203864D02*
X358754D01*
X357704D01*
Y200716D01*
X103058Y177327D02*
X105157Y174178D01*
Y177327D02*
X103058Y174178D01*
X106206D02*
X107256D01*
X106731D01*
Y177327D01*
X106206Y176802D01*
X80511Y117754D02*
Y115130D01*
X81036Y114606D01*
X82086D01*
X82610Y115130D01*
Y117754D01*
X83660Y117229D02*
X84184Y117754D01*
X85234D01*
X85759Y117229D01*
Y116705D01*
X85234Y116180D01*
X84709D01*
X85234D01*
X85759Y115655D01*
Y115130D01*
X85234Y114606D01*
X84184D01*
X83660Y115130D01*
X217991Y135199D02*
Y132576D01*
X218516Y132051D01*
X219566D01*
X220090Y132576D01*
Y135199D01*
X223239Y132051D02*
X221140D01*
X223239Y134150D01*
Y134675D01*
X222714Y135199D01*
X221665D01*
X221140Y134675D01*
X242917Y184414D02*
Y181790D01*
X243442Y181266D01*
X244492D01*
X245017Y181790D01*
Y184414D01*
X246066Y181266D02*
X247116D01*
X246591D01*
Y184414D01*
X246066Y183890D01*
X271988Y77959D02*
X274087D01*
X273037D01*
Y74811D01*
X275136Y77959D02*
Y75860D01*
X276186Y74811D01*
X277235Y75860D01*
Y77959D01*
X280384Y77434D02*
X279859Y77959D01*
X278809D01*
X278285Y77434D01*
Y76910D01*
X278809Y76385D01*
X279859D01*
X280384Y75860D01*
Y75336D01*
X279859Y74811D01*
X278809D01*
X278285Y75336D01*
X283532Y74811D02*
X281433D01*
X283532Y76910D01*
Y77434D01*
X283008Y77959D01*
X281958D01*
X281433Y77434D01*
X339417Y79209D02*
X341516D01*
X340467D01*
Y76061D01*
X342566Y79209D02*
Y77110D01*
X343616Y76061D01*
X344665Y77110D01*
Y79209D01*
X347814Y78685D02*
X347289Y79209D01*
X346239D01*
X345714Y78685D01*
Y78160D01*
X346239Y77635D01*
X347289D01*
X347814Y77110D01*
Y76586D01*
X347289Y76061D01*
X346239D01*
X345714Y76586D01*
X348863Y76061D02*
X349913D01*
X349388D01*
Y79209D01*
X348863Y78685D01*
X56599Y183624D02*
X56074Y184149D01*
X55025D01*
X54500Y183624D01*
Y183099D01*
X55025Y182574D01*
X56074D01*
X56599Y182050D01*
Y181525D01*
X56074Y181000D01*
X55025D01*
X54500Y181525D01*
X57649Y184149D02*
X59748D01*
X58698D01*
Y181000D01*
X60797D02*
Y184149D01*
X61847Y183099D01*
X62896Y184149D01*
Y181000D01*
X67094D02*
Y184149D01*
X68669D01*
X69193Y183624D01*
Y182574D01*
X68669Y182050D01*
X67094D01*
X68144D02*
X69193Y181000D01*
X72342Y184149D02*
X70243D01*
Y181000D01*
X72342D01*
X70243Y182574D02*
X71293D01*
X75491Y183624D02*
X74966Y184149D01*
X73916D01*
X73391Y183624D01*
Y183099D01*
X73916Y182574D01*
X74966D01*
X75491Y182050D01*
Y181525D01*
X74966Y181000D01*
X73916D01*
X73391Y181525D01*
X78639Y184149D02*
X76540D01*
Y181000D01*
X78639D01*
X76540Y182574D02*
X77590D01*
X79689Y184149D02*
X81788D01*
X80738D01*
Y181000D01*
X196792Y188506D02*
Y191654D01*
X198366D01*
X198891Y191130D01*
Y190080D01*
X198366Y189555D01*
X196792D01*
X197841D02*
X198891Y188506D01*
X202040D02*
X199941D01*
X202040Y190605D01*
Y191130D01*
X201515Y191654D01*
X200465D01*
X199941Y191130D01*
X205188Y188506D02*
X203089D01*
X205188Y190605D01*
Y191130D01*
X204663Y191654D01*
X203614D01*
X203089Y191130D01*
X186727Y170676D02*
Y173824D01*
X188301D01*
X188826Y173300D01*
Y172250D01*
X188301Y171725D01*
X186727D01*
X187776D02*
X188826Y170676D01*
X191974D02*
X189875D01*
X191974Y172775D01*
Y173300D01*
X191449Y173824D01*
X190400D01*
X189875Y173300D01*
X193024Y170676D02*
X194073D01*
X193549D01*
Y173824D01*
X193024Y173300D01*
X186052Y159726D02*
Y162874D01*
X187626D01*
X188151Y162349D01*
Y161300D01*
X187626Y160775D01*
X186052D01*
X187101D02*
X188151Y159726D01*
X191299D02*
X189200D01*
X191299Y161825D01*
Y162349D01*
X190775Y162874D01*
X189725D01*
X189200Y162349D01*
X192349D02*
X192874Y162874D01*
X193923D01*
X194448Y162349D01*
Y160250D01*
X193923Y159726D01*
X192874D01*
X192349Y160250D01*
Y162349D01*
X304157Y162126D02*
Y165274D01*
X305732D01*
X306256Y164750D01*
Y163700D01*
X305732Y163175D01*
X304157D01*
X305207D02*
X306256Y162126D01*
X307306D02*
X308355D01*
X307831D01*
Y165274D01*
X307306Y164750D01*
X309930Y162651D02*
X310454Y162126D01*
X311504D01*
X312029Y162651D01*
Y164750D01*
X311504Y165274D01*
X310454D01*
X309930Y164750D01*
Y164225D01*
X310454Y163700D01*
X312029D01*
X304221Y173576D02*
Y176724D01*
X305796D01*
X306320Y176199D01*
Y175150D01*
X305796Y174625D01*
X304221D01*
X305271D02*
X306320Y173576D01*
X307370D02*
X308419D01*
X307895D01*
Y176724D01*
X307370Y176199D01*
X309994D02*
X310519Y176724D01*
X311568D01*
X312093Y176199D01*
Y175675D01*
X311568Y175150D01*
X312093Y174625D01*
Y174100D01*
X311568Y173576D01*
X310519D01*
X309994Y174100D01*
Y174625D01*
X310519Y175150D01*
X309994Y175675D01*
Y176199D01*
X310519Y175150D02*
X311568D01*
X289824Y190456D02*
Y193604D01*
X291399D01*
X291923Y193079D01*
Y192030D01*
X291399Y191505D01*
X289824D01*
X290874D02*
X291923Y190456D01*
X292973D02*
X294022D01*
X293498D01*
Y193604D01*
X292973Y193079D01*
X295597Y193604D02*
X297696D01*
Y193079D01*
X295597Y190981D01*
Y190456D01*
X196554Y38581D02*
Y41729D01*
X198129D01*
X198653Y41205D01*
Y40155D01*
X198129Y39630D01*
X196554D01*
X197604D02*
X198653Y38581D01*
X199703D02*
X200752D01*
X200228D01*
Y41729D01*
X199703Y41205D01*
X204426Y41729D02*
X203376Y41205D01*
X202327Y40155D01*
Y39105D01*
X202851Y38581D01*
X203901D01*
X204426Y39105D01*
Y39630D01*
X203901Y40155D01*
X202327D01*
X181579Y216968D02*
Y220116D01*
X183153D01*
X183678Y219591D01*
Y218542D01*
X183153Y218017D01*
X181579D01*
X182628D02*
X183678Y216968D01*
X184727D02*
X185777D01*
X185252D01*
Y220116D01*
X184727Y219591D01*
X189450Y220116D02*
X187351D01*
Y218542D01*
X188401Y219067D01*
X188926D01*
X189450Y218542D01*
Y217493D01*
X188926Y216968D01*
X187876D01*
X187351Y217493D01*
X185754Y38966D02*
Y42114D01*
X187329D01*
X187853Y41589D01*
Y40540D01*
X187329Y40015D01*
X185754D01*
X186804D02*
X187853Y38966D01*
X188903D02*
X189952D01*
X189428D01*
Y42114D01*
X188903Y41589D01*
X193101Y38966D02*
Y42114D01*
X191527Y40540D01*
X193626D01*
X174804Y37491D02*
Y40639D01*
X176379D01*
X176903Y40115D01*
Y39065D01*
X176379Y38540D01*
X174804D01*
X175854D02*
X176903Y37491D01*
X177953D02*
X179002D01*
X178478D01*
Y40639D01*
X177953Y40115D01*
X182676Y37491D02*
X180577D01*
X182676Y39590D01*
Y40115D01*
X182151Y40639D01*
X181101D01*
X180577Y40115D01*
X46644Y100346D02*
Y103494D01*
X48218D01*
X48743Y102970D01*
Y101920D01*
X48218Y101395D01*
X46644D01*
X47694D02*
X48743Y100346D01*
X49793D02*
X50842D01*
X50317D01*
Y103494D01*
X49793Y102970D01*
X52416Y100346D02*
X53466D01*
X52941D01*
Y103494D01*
X52416Y102970D01*
X82029Y173861D02*
Y177009D01*
X83603D01*
X84128Y176484D01*
Y175435D01*
X83603Y174910D01*
X82029D01*
X83078D02*
X84128Y173861D01*
X85177D02*
X86227D01*
X85702D01*
Y177009D01*
X85177Y176484D01*
X87801D02*
X88326Y177009D01*
X89376D01*
X89900Y176484D01*
Y174385D01*
X89376Y173861D01*
X88326D01*
X87801Y174385D01*
Y176484D01*
X321700Y174000D02*
Y177149D01*
X323274D01*
X323799Y176624D01*
Y175574D01*
X323274Y175049D01*
X321700D01*
X322749D02*
X323799Y174000D01*
X324849Y174525D02*
X325373Y174000D01*
X326423D01*
X326948Y174525D01*
Y176624D01*
X326423Y177149D01*
X325373D01*
X324849Y176624D01*
Y176099D01*
X325373Y175574D01*
X326948D01*
X58146Y210496D02*
Y213644D01*
X59720D01*
X60245Y213120D01*
Y212070D01*
X59720Y211545D01*
X58146D01*
X59196D02*
X60245Y210496D01*
X61295Y213120D02*
X61819Y213644D01*
X62869D01*
X63394Y213120D01*
Y212595D01*
X62869Y212070D01*
X63394Y211545D01*
Y211020D01*
X62869Y210496D01*
X61819D01*
X61295Y211020D01*
Y211545D01*
X61819Y212070D01*
X61295Y212595D01*
Y213120D01*
X61819Y212070D02*
X62869D01*
X75246Y210316D02*
Y213464D01*
X76820D01*
X77345Y212940D01*
Y211890D01*
X76820Y211365D01*
X75246D01*
X76296D02*
X77345Y210316D01*
X78395Y213464D02*
X80494D01*
Y212940D01*
X78395Y210841D01*
Y210316D01*
X91626Y210076D02*
Y213224D01*
X93200D01*
X93725Y212700D01*
Y211650D01*
X93200Y211125D01*
X91626D01*
X92676D02*
X93725Y210076D01*
X96874Y213224D02*
X95824Y212700D01*
X94775Y211650D01*
Y210600D01*
X95300Y210076D01*
X96349D01*
X96874Y210600D01*
Y211125D01*
X96349Y211650D01*
X94775D01*
X107166Y210016D02*
Y213164D01*
X108740D01*
X109265Y212639D01*
Y211590D01*
X108740Y211065D01*
X107166D01*
X108216D02*
X109265Y210016D01*
X112414Y213164D02*
X110315D01*
Y211590D01*
X111364Y212115D01*
X111889D01*
X112414Y211590D01*
Y210541D01*
X111889Y210016D01*
X110839D01*
X110315Y210541D01*
X325661Y127401D02*
Y130549D01*
X327236D01*
X327760Y130025D01*
Y128975D01*
X327236Y128450D01*
X325661D01*
X326711D02*
X327760Y127401D01*
X330384D02*
Y130549D01*
X328810Y128975D01*
X330909D01*
X296236Y127976D02*
Y131124D01*
X297811D01*
X298335Y130599D01*
Y129550D01*
X297811Y129025D01*
X296236D01*
X297286D02*
X298335Y127976D01*
X299385Y130599D02*
X299909Y131124D01*
X300959D01*
X301484Y130599D01*
Y130075D01*
X300959Y129550D01*
X300434D01*
X300959D01*
X301484Y129025D01*
Y128500D01*
X300959Y127976D01*
X299909D01*
X299385Y128500D01*
X106111Y113636D02*
Y116784D01*
X107685D01*
X108210Y116260D01*
Y115210D01*
X107685Y114685D01*
X106111D01*
X107161D02*
X108210Y113636D01*
X111359D02*
X109260D01*
X111359Y115735D01*
Y116260D01*
X110834Y116784D01*
X109784D01*
X109260Y116260D01*
X209576Y200001D02*
Y203149D01*
X211150D01*
X211675Y202625D01*
Y201575D01*
X211150Y201050D01*
X209576D01*
X210626D02*
X211675Y200001D01*
X212724D02*
X213774D01*
X213249D01*
Y203149D01*
X212724Y202625D01*
X209349Y232942D02*
X208299D01*
X208824D01*
Y230318D01*
X208299Y229793D01*
X207775D01*
X207250Y230318D01*
X210399Y229793D02*
Y232942D01*
X211973D01*
X212498Y232417D01*
Y231367D01*
X211973Y230842D01*
X210399D01*
X215122Y229793D02*
Y232942D01*
X213547Y231367D01*
X215646D01*
X179100Y249949D02*
Y246800D01*
X180674D01*
X181199Y247325D01*
Y247849D01*
X180674Y248374D01*
X179100D01*
X180674D01*
X181199Y248899D01*
Y249424D01*
X180674Y249949D01*
X179100D01*
X183823D02*
X182773D01*
X182249Y249424D01*
Y247325D01*
X182773Y246800D01*
X183823D01*
X184348Y247325D01*
Y249424D01*
X183823Y249949D01*
X186971D02*
X185922D01*
X185397Y249424D01*
Y247325D01*
X185922Y246800D01*
X186971D01*
X187496Y247325D01*
Y249424D01*
X186971Y249949D01*
X188546D02*
X190645D01*
X189595D01*
Y246800D01*
X303325Y73062D02*
X302800Y73587D01*
X301750D01*
X301225Y73062D01*
Y70963D01*
X301750Y70438D01*
X302800D01*
X303325Y70963D01*
X304374Y70438D02*
Y72537D01*
X305423Y73587D01*
X306473Y72537D01*
Y70438D01*
Y72012D01*
X304374D01*
X307523Y70438D02*
Y73587D01*
X309622Y70438D01*
Y73587D01*
X310671Y69913D02*
X312770D01*
X313820Y70438D02*
Y73587D01*
X315394D01*
X315919Y73062D01*
Y72012D01*
X315394Y71488D01*
X313820D01*
X316968Y73587D02*
Y70438D01*
Y72012D01*
X319067D01*
Y73587D01*
Y70438D01*
X320117Y73587D02*
Y73062D01*
X321166Y72012D01*
X322216Y73062D01*
Y73587D01*
X321166Y72012D02*
Y70438D01*
X325365Y73062D02*
X324840Y73587D01*
X323790D01*
X323266Y73062D01*
Y72537D01*
X323790Y72012D01*
X324840D01*
X325365Y71488D01*
Y70963D01*
X324840Y70438D01*
X323790D01*
X323266Y70963D01*
X302265Y135017D02*
X301740Y135542D01*
X300691D01*
X300166Y135017D01*
Y132918D01*
X300691Y132393D01*
X301740D01*
X302265Y132918D01*
X303315Y132393D02*
Y134492D01*
X304364Y135542D01*
X305414Y134492D01*
Y132393D01*
Y133967D01*
X303315D01*
X306463Y132393D02*
Y135542D01*
X308562Y132393D01*
Y135542D01*
X309612Y131868D02*
X311711D01*
X312760Y135542D02*
Y132393D01*
X314335D01*
X314860Y132918D01*
Y135017D01*
X314335Y135542D01*
X312760D01*
X318008D02*
X315909D01*
Y132393D01*
X318008D01*
X315909Y133967D02*
X316959D01*
X319058Y135542D02*
Y132393D01*
X320632D01*
X321157Y132918D01*
Y133443D01*
X320632Y133967D01*
X319058D01*
X320632D01*
X321157Y134492D01*
Y135017D01*
X320632Y135542D01*
X319058D01*
X322206D02*
Y132918D01*
X322731Y132393D01*
X323780D01*
X324305Y132918D01*
Y135542D01*
X327454Y135017D02*
X326929Y135542D01*
X325880D01*
X325355Y135017D01*
Y132918D01*
X325880Y132393D01*
X326929D01*
X327454Y132918D01*
Y133967D01*
X326404D01*
X152796Y50854D02*
X150697D01*
Y49280D01*
X151746D01*
X150697D01*
Y47706D01*
X153845Y50854D02*
Y47706D01*
X155420D01*
X155944Y48230D01*
Y48755D01*
X155420Y49280D01*
X153845D01*
X155420D01*
X155944Y49805D01*
Y50330D01*
X155420Y50854D01*
X153845D01*
X156994Y47706D02*
X158043D01*
X157519D01*
Y50854D01*
X156994Y50330D01*
X200776Y11924D02*
Y8776D01*
X202350D01*
X202875Y9301D01*
Y11400D01*
X202350Y11924D01*
X200776D01*
X206024D02*
X204974Y11400D01*
X203925Y10350D01*
Y9301D01*
X204450Y8776D01*
X205499D01*
X206024Y9301D01*
Y9825D01*
X205499Y10350D01*
X203925D01*
X188811Y11459D02*
Y8311D01*
X190385D01*
X190910Y8835D01*
Y10934D01*
X190385Y11459D01*
X188811D01*
X194059D02*
X191960D01*
Y9885D01*
X193009Y10410D01*
X193534D01*
X194059Y9885D01*
Y8835D01*
X193534Y8311D01*
X192484D01*
X191960Y8835D01*
X176116Y11724D02*
Y8576D01*
X177690D01*
X178215Y9100D01*
Y11199D01*
X177690Y11724D01*
X176116D01*
X180839Y8576D02*
Y11724D01*
X179265Y10150D01*
X181364D01*
X56136Y116849D02*
Y113701D01*
X57710D01*
X58235Y114225D01*
Y116324D01*
X57710Y116849D01*
X56136D01*
X61384Y113701D02*
X59285D01*
X61384Y115800D01*
Y116324D01*
X60859Y116849D01*
X59809D01*
X59285Y116324D01*
X115351Y103524D02*
Y100376D01*
X116925D01*
X117450Y100900D01*
Y102999D01*
X116925Y103524D01*
X115351D01*
X118500Y100376D02*
X119549D01*
X119024D01*
Y103524D01*
X118500Y102999D01*
X178007Y258914D02*
Y255766D01*
X180106D01*
X183255Y258914D02*
X181156D01*
Y255766D01*
X183255D01*
X181156Y257340D02*
X182205D01*
X184304Y258914D02*
Y255766D01*
X185878D01*
X186403Y256291D01*
Y258389D01*
X185878Y258914D01*
X184304D01*
X125711Y1371D02*
Y4519D01*
X127285D01*
X127810Y3994D01*
Y2945D01*
X127285Y2420D01*
X125711D01*
X129384Y1371D02*
X130434D01*
X130958Y1895D01*
Y2945D01*
X130434Y3470D01*
X129384D01*
X128859Y2945D01*
Y1895D01*
X129384Y1371D01*
X132008Y3470D02*
Y1895D01*
X132533Y1371D01*
X133057Y1895D01*
X133582Y1371D01*
X134107Y1895D01*
Y3470D01*
X136731Y1371D02*
X135681D01*
X135156Y1895D01*
Y2945D01*
X135681Y3470D01*
X136731D01*
X137256Y2945D01*
Y2420D01*
X135156D01*
X138305Y3470D02*
Y1371D01*
Y2420D01*
X138830Y2945D01*
X139355Y3470D01*
X139879D01*
X200989Y257035D02*
X200464Y257560D01*
X199414D01*
X198890Y257035D01*
Y256510D01*
X199414Y255985D01*
X200464D01*
X200989Y255461D01*
Y254936D01*
X200464Y254411D01*
X199414D01*
X198890Y254936D01*
X202038Y257560D02*
Y254411D01*
X203612D01*
X204137Y254936D01*
Y257035D01*
X203612Y257560D01*
X202038D01*
X210434Y257035D02*
X209910Y257560D01*
X208860D01*
X208335Y257035D01*
Y254936D01*
X208860Y254411D01*
X209910D01*
X210434Y254936D01*
X212009Y256510D02*
X213058D01*
X213583Y255985D01*
Y254411D01*
X212009D01*
X211484Y254936D01*
X212009Y255461D01*
X213583D01*
X214633Y256510D02*
Y254411D01*
Y255461D01*
X215157Y255985D01*
X215682Y256510D01*
X216207D01*
X219880Y257560D02*
Y254411D01*
X218306D01*
X217781Y254936D01*
Y255985D01*
X218306Y256510D01*
X219880D01*
X210396Y251940D02*
X209871Y252464D01*
X208822D01*
X208297Y251940D01*
Y249840D01*
X208822Y249316D01*
X209871D01*
X210396Y249840D01*
X213545Y249316D02*
X211445D01*
X213545Y251415D01*
Y251940D01*
X213020Y252464D01*
X211970D01*
X211445Y251940D01*
X214594Y252464D02*
X216693D01*
Y251940D01*
X214594Y249840D01*
Y249316D01*
X234656Y168540D02*
X234131Y169064D01*
X233082D01*
X232557Y168540D01*
Y166440D01*
X233082Y165916D01*
X234131D01*
X234656Y166440D01*
X237805Y165916D02*
X235705D01*
X237805Y168015D01*
Y168540D01*
X237280Y169064D01*
X236230D01*
X235705Y168540D01*
X240953Y169064D02*
X239904Y168540D01*
X238854Y167490D01*
Y166440D01*
X239379Y165916D01*
X240428D01*
X240953Y166440D01*
Y166965D01*
X240428Y167490D01*
X238854D01*
X133178Y169227D02*
X132653Y169752D01*
X131604D01*
X131079Y169227D01*
Y167128D01*
X131604Y166604D01*
X132653D01*
X133178Y167128D01*
X136326Y166604D02*
X134227D01*
X136326Y168703D01*
Y169227D01*
X135802Y169752D01*
X134752D01*
X134227Y169227D01*
X139475Y169752D02*
X137376D01*
Y168178D01*
X138426Y168703D01*
X138950D01*
X139475Y168178D01*
Y167128D01*
X138950Y166604D01*
X137901D01*
X137376Y167128D01*
X133449Y148924D02*
X132924Y149449D01*
X131875D01*
X131350Y148924D01*
Y146825D01*
X131875Y146300D01*
X132924D01*
X133449Y146825D01*
X136598Y146300D02*
X134499D01*
X136598Y148399D01*
Y148924D01*
X136073Y149449D01*
X135023D01*
X134499Y148924D01*
X139222Y146300D02*
Y149449D01*
X137647Y147874D01*
X139746D01*
X284349Y225974D02*
X283824Y226499D01*
X282775D01*
X282250Y225974D01*
Y223875D01*
X282775Y223350D01*
X283824D01*
X284349Y223875D01*
X287498Y223350D02*
X285399D01*
X287498Y225449D01*
Y225974D01*
X286973Y226499D01*
X285923D01*
X285399Y225974D01*
X290646Y223350D02*
X288547D01*
X290646Y225449D01*
Y225974D01*
X290122Y226499D01*
X289072D01*
X288547Y225974D01*
X211706Y53444D02*
X211181Y53969D01*
X210131D01*
X209607Y53444D01*
Y51345D01*
X210131Y50821D01*
X211181D01*
X211706Y51345D01*
X214854Y50821D02*
X212755D01*
X214854Y52920D01*
Y53444D01*
X214330Y53969D01*
X213280D01*
X212755Y53444D01*
X215904Y50821D02*
X216953D01*
X216429D01*
Y53969D01*
X215904Y53444D01*
X328106Y113440D02*
X327581Y113964D01*
X326532D01*
X326007Y113440D01*
Y111340D01*
X326532Y110816D01*
X327581D01*
X328106Y111340D01*
X331255Y110816D02*
X329155D01*
X331255Y112915D01*
Y113440D01*
X330730Y113964D01*
X329680D01*
X329155Y113440D01*
X332304D02*
X332829Y113964D01*
X333878D01*
X334403Y113440D01*
Y111340D01*
X333878Y110816D01*
X332829D01*
X332304Y111340D01*
Y113440D01*
X328128Y95590D02*
X327604Y96114D01*
X326554D01*
X326029Y95590D01*
Y93490D01*
X326554Y92966D01*
X327604D01*
X328128Y93490D01*
X329178Y92966D02*
X330227D01*
X329703D01*
Y96114D01*
X329178Y95590D01*
X331802Y93490D02*
X332327Y92966D01*
X333376D01*
X333901Y93490D01*
Y95590D01*
X333376Y96114D01*
X332327D01*
X331802Y95590D01*
Y95065D01*
X332327Y94540D01*
X333901D01*
X293833Y100794D02*
X293309Y101319D01*
X292259D01*
X291734Y100794D01*
Y98695D01*
X292259Y98171D01*
X293309D01*
X293833Y98695D01*
X294883Y98171D02*
X295932D01*
X295408D01*
Y101319D01*
X294883Y100794D01*
X297507D02*
X298031Y101319D01*
X299081D01*
X299606Y100794D01*
Y100270D01*
X299081Y99745D01*
X299606Y99220D01*
Y98695D01*
X299081Y98171D01*
X298031D01*
X297507Y98695D01*
Y99220D01*
X298031Y99745D01*
X297507Y100270D01*
Y100794D01*
X298031Y99745D02*
X299081D01*
X240648Y126374D02*
X240124Y126899D01*
X239074D01*
X238549Y126374D01*
Y124276D01*
X239074Y123751D01*
X240124D01*
X240648Y124276D01*
X241698Y123751D02*
X242747D01*
X242223D01*
Y126899D01*
X241698Y126374D01*
X244322Y126899D02*
X246421D01*
Y126374D01*
X244322Y124276D01*
Y123751D01*
X142273Y40534D02*
X141749Y41059D01*
X140699D01*
X140174Y40534D01*
Y38436D01*
X140699Y37911D01*
X141749D01*
X142273Y38436D01*
X143323Y37911D02*
X144372D01*
X143848D01*
Y41059D01*
X143323Y40534D01*
X145947D02*
X146472Y41059D01*
X147521D01*
X148046Y40534D01*
Y40010D01*
X147521Y39485D01*
X146996D01*
X147521D01*
X148046Y38960D01*
Y38436D01*
X147521Y37911D01*
X146472D01*
X145947Y38436D01*
X248503Y46909D02*
X247978Y47434D01*
X246929D01*
X246404Y46909D01*
Y44811D01*
X246929Y44286D01*
X247978D01*
X248503Y44811D01*
X249553Y44286D02*
X250602D01*
X250077D01*
Y47434D01*
X249553Y46909D01*
X252176Y44286D02*
X253226D01*
X252701D01*
Y47434D01*
X252176Y46909D01*
X71815Y116019D02*
X71290Y116544D01*
X70241D01*
X69716Y116019D01*
Y113920D01*
X70241Y113396D01*
X71290D01*
X71815Y113920D01*
X74964Y113396D02*
X72865D01*
X74964Y115495D01*
Y116019D01*
X74439Y116544D01*
X73390D01*
X72865Y116019D01*
X99162Y116288D02*
X98638Y116813D01*
X97588D01*
X97063Y116288D01*
Y114189D01*
X97588Y113665D01*
X98638D01*
X99162Y114189D01*
X100212Y113665D02*
X101261D01*
X100737D01*
Y116813D01*
X100212Y116288D01*
D13*
X368699Y244094D02*
X368659Y245092D01*
X368539Y246084D01*
X368339Y247062D01*
X368061Y248021D01*
X367707Y248955D01*
X367279Y249857D01*
X366780Y250722D01*
X366212Y251544D01*
X365581Y252317D01*
X364889Y253037D01*
X364142Y253700D01*
X363343Y254299D01*
X362499Y254833D01*
X361615Y255297D01*
X360696Y255689D01*
X359749Y256005D01*
X358780Y256244D01*
X357794Y256404D01*
X356799Y256484D01*
X355800D01*
X354805Y256404D01*
X353819Y256244D01*
X352849Y256005D01*
X351902Y255689D01*
X350983Y255297D01*
X350099Y254833D01*
X349255Y254299D01*
X348457Y253700D01*
X347709Y253037D01*
X347018Y252317D01*
X346386Y251544D01*
X345819Y250722D01*
X345320Y249857D01*
X344892Y248955D01*
X344537Y248021D01*
X344260Y247062D01*
X344060Y246084D01*
X343939Y245092D01*
X343899Y244094D01*
X343939Y243097D01*
X344060Y242105D01*
X344260Y241127D01*
X344537Y240168D01*
X344892Y239234D01*
X345320Y238332D01*
X345819Y237467D01*
X346386Y236645D01*
X347018Y235872D01*
X347709Y235152D01*
X348457Y234489D01*
X349255Y233890D01*
X350099Y233356D01*
X350983Y232892D01*
X351902Y232500D01*
X352849Y232184D01*
X353819Y231945D01*
X354805Y231785D01*
X355800Y231705D01*
X356799D01*
X357794Y231785D01*
X358780Y231945D01*
X359749Y232184D01*
X360696Y232500D01*
X361615Y232892D01*
X362499Y233356D01*
X363343Y233890D01*
X364142Y234489D01*
X364889Y235152D01*
X365581Y235872D01*
X366212Y236645D01*
X366780Y237467D01*
X367279Y238332D01*
X367707Y239234D01*
X368061Y240168D01*
X368339Y241127D01*
X368539Y242105D01*
X368659Y243097D01*
X368699Y244094D01*
X36022Y15748D02*
X35982Y16746D01*
X35862Y17737D01*
X35662Y18715D01*
X35384Y19675D01*
X35030Y20608D01*
X34602Y21511D01*
X34102Y22375D01*
X33535Y23197D01*
X32904Y23971D01*
X32212Y24691D01*
X31464Y25353D01*
X30666Y25953D01*
X29822Y26487D01*
X28938Y26951D01*
X28019Y27342D01*
X27072Y27658D01*
X26102Y27897D01*
X25117Y28058D01*
X24121Y28138D01*
X23123D01*
X22127Y28058D01*
X21142Y27897D01*
X20172Y27658D01*
X19225Y27342D01*
X18306Y26951D01*
X17422Y26487D01*
X16578Y25953D01*
X15780Y25353D01*
X15032Y24691D01*
X14341Y23971D01*
X13709Y23197D01*
X13142Y22375D01*
X12642Y21511D01*
X12214Y20608D01*
X11860Y19675D01*
X11582Y18715D01*
X11383Y17737D01*
X11262Y16746D01*
X11222Y15748D01*
X11262Y14750D01*
X11383Y13759D01*
X11582Y12780D01*
X11860Y11821D01*
X12214Y10888D01*
X12642Y9985D01*
X13142Y9121D01*
X13709Y8299D01*
X14341Y7525D01*
X15032Y6805D01*
X15780Y6143D01*
X16578Y5543D01*
X17422Y5009D01*
X18306Y4545D01*
X19225Y4154D01*
X20172Y3838D01*
X21142Y3599D01*
X22127Y3438D01*
X23123Y3358D01*
X24121D01*
X25117Y3438D01*
X26102Y3599D01*
X27072Y3838D01*
X28019Y4154D01*
X28938Y4545D01*
X29822Y5009D01*
X30666Y5543D01*
X31464Y6143D01*
X32212Y6805D01*
X32904Y7525D01*
X33535Y8299D01*
X34102Y9121D01*
X34602Y9985D01*
X35030Y10888D01*
X35384Y11821D01*
X35662Y12780D01*
X35862Y13759D01*
X35982Y14750D01*
X36022Y15748D01*
X368699D02*
X368659Y16746D01*
X368539Y17737D01*
X368339Y18715D01*
X368061Y19675D01*
X367707Y20608D01*
X367279Y21511D01*
X366780Y22375D01*
X366212Y23197D01*
X365581Y23971D01*
X364889Y24691D01*
X364142Y25353D01*
X363343Y25953D01*
X362499Y26487D01*
X361615Y26951D01*
X360696Y27342D01*
X359749Y27658D01*
X358780Y27897D01*
X357794Y28058D01*
X356799Y28138D01*
X355800D01*
X354805Y28058D01*
X353819Y27897D01*
X352849Y27658D01*
X351902Y27342D01*
X350983Y26951D01*
X350099Y26487D01*
X349255Y25953D01*
X348457Y25353D01*
X347709Y24691D01*
X347018Y23971D01*
X346386Y23197D01*
X345819Y22375D01*
X345320Y21511D01*
X344892Y20608D01*
X344537Y19675D01*
X344260Y18715D01*
X344060Y17737D01*
X343939Y16746D01*
X343899Y15748D01*
X343939Y14750D01*
X344060Y13759D01*
X344260Y12780D01*
X344537Y11821D01*
X344892Y10888D01*
X345320Y9985D01*
X345819Y9121D01*
X346386Y8299D01*
X347018Y7525D01*
X347709Y6805D01*
X348457Y6143D01*
X349255Y5543D01*
X350099Y5009D01*
X350983Y4545D01*
X351902Y4154D01*
X352849Y3838D01*
X353819Y3599D01*
X354805Y3438D01*
X355800Y3358D01*
X356799D01*
X357794Y3438D01*
X358780Y3599D01*
X359749Y3838D01*
X360696Y4154D01*
X361615Y4545D01*
X362499Y5009D01*
X363343Y5543D01*
X364142Y6143D01*
X364889Y6805D01*
X365581Y7525D01*
X366212Y8299D01*
X366780Y9121D01*
X367279Y9985D01*
X367707Y10888D01*
X368061Y11821D01*
X368339Y12780D01*
X368539Y13759D01*
X368659Y14750D01*
X368699Y15748D01*
X36022Y244094D02*
X35982Y245092D01*
X35862Y246084D01*
X35662Y247062D01*
X35384Y248021D01*
X35030Y248955D01*
X34602Y249857D01*
X34102Y250722D01*
X33535Y251544D01*
X32904Y252317D01*
X32212Y253037D01*
X31464Y253700D01*
X30666Y254299D01*
X29822Y254833D01*
X28938Y255297D01*
X28019Y255689D01*
X27072Y256005D01*
X26102Y256244D01*
X25117Y256404D01*
X24121Y256484D01*
X23123D01*
X22127Y256404D01*
X21142Y256244D01*
X20172Y256005D01*
X19225Y255689D01*
X18306Y255297D01*
X17422Y254833D01*
X16578Y254299D01*
X15780Y253700D01*
X15032Y253037D01*
X14341Y252317D01*
X13709Y251544D01*
X13142Y250722D01*
X12642Y249857D01*
X12214Y248955D01*
X11860Y248021D01*
X11582Y247062D01*
X11383Y246084D01*
X11262Y245092D01*
X11222Y244094D01*
X11262Y243097D01*
X11383Y242105D01*
X11582Y241127D01*
X11860Y240168D01*
X12214Y239234D01*
X12642Y238332D01*
X13142Y237467D01*
X13709Y236645D01*
X14341Y235872D01*
X15032Y235152D01*
X15780Y234489D01*
X16578Y233890D01*
X17422Y233356D01*
X18306Y232892D01*
X19225Y232500D01*
X20172Y232184D01*
X21142Y231945D01*
X22127Y231785D01*
X23123Y231705D01*
X24121D01*
X25117Y231785D01*
X26102Y231945D01*
X27072Y232184D01*
X28019Y232500D01*
X28938Y232892D01*
X29822Y233356D01*
X30666Y233890D01*
X31464Y234489D01*
X32212Y235152D01*
X32904Y235872D01*
X33535Y236645D01*
X34102Y237467D01*
X34602Y238332D01*
X35030Y239234D01*
X35384Y240168D01*
X35662Y241127D01*
X35862Y242105D01*
X35982Y243097D01*
X36022Y244094D01*
X124550Y205130D02*
Y261630D01*
Y205130D02*
X175550D01*
X124550Y261630D02*
X175550D01*
Y205130D02*
Y261630D01*
X296585Y254322D02*
Y257470D01*
X297635Y256421D01*
X298684Y257470D01*
Y254322D01*
X300258Y256421D02*
X301308D01*
X301833Y255896D01*
Y254322D01*
X300258D01*
X299734Y254846D01*
X300258Y255371D01*
X301833D01*
X302882Y256421D02*
Y254322D01*
Y255371D01*
X303407Y255896D01*
X303932Y256421D01*
X304456D01*
X306031Y254322D02*
X307080D01*
X306556D01*
Y256421D01*
X306031D01*
X310229Y254322D02*
X309179D01*
X308655Y254846D01*
Y255896D01*
X309179Y256421D01*
X310229D01*
X310754Y255896D01*
Y255371D01*
X308655D01*
X314952Y254322D02*
Y257470D01*
X317051Y254322D01*
Y257470D01*
X318100Y254322D02*
X319150D01*
X318625D01*
Y256421D01*
X318100D01*
X320724Y254322D02*
Y257470D01*
Y255371D02*
X322299Y256421D01*
X320724Y255371D02*
X322299Y254322D01*
X323873D02*
Y257470D01*
Y255371D02*
X325447Y256421D01*
X323873Y255371D02*
X325447Y254322D01*
X328596D02*
X327546D01*
X327021Y254846D01*
Y255896D01*
X327546Y256421D01*
X328596D01*
X329120Y255896D01*
Y255371D01*
X327021D01*
X330170Y254322D02*
X331220D01*
X330695D01*
Y257470D01*
X330170D01*
X296585Y248143D02*
Y250242D01*
X297635Y251292D01*
X298684Y250242D01*
Y248143D01*
Y249718D01*
X296585D01*
X299734Y251292D02*
Y248668D01*
X300258Y248143D01*
X301308D01*
X301833Y248668D01*
Y251292D01*
X302882D02*
Y249193D01*
X303932Y248143D01*
X304981Y249193D01*
Y251292D01*
X306031D02*
X307080D01*
X306556D01*
Y248143D01*
X306031D01*
X307080D01*
X310754Y250767D02*
X310229Y251292D01*
X309179D01*
X308655Y250767D01*
Y248668D01*
X309179Y248143D01*
X310229D01*
X310754Y248668D01*
X317051Y251292D02*
X314952D01*
Y249718D01*
X316001D01*
X314952D01*
Y248143D01*
X318625Y250242D02*
X319675D01*
X320199Y249718D01*
Y248143D01*
X318625D01*
X318100Y248668D01*
X318625Y249193D01*
X320199D01*
X321249Y248143D02*
X322299D01*
X321774D01*
Y251292D01*
X321249D01*
X323873Y248143D02*
X324922D01*
X324398D01*
Y251292D01*
X323873D01*
X331744Y248143D02*
X329645D01*
X331744Y250242D01*
Y250767D01*
X331220Y251292D01*
X330170D01*
X329645Y250767D01*
X332794D02*
X333319Y251292D01*
X334368D01*
X334893Y250767D01*
Y248668D01*
X334368Y248143D01*
X333319D01*
X332794Y248668D01*
Y250767D01*
X338041Y248143D02*
X335942D01*
X338041Y250242D01*
Y250767D01*
X337517Y251292D01*
X336467D01*
X335942Y250767D01*
X339091D02*
X339616Y251292D01*
X340665D01*
X341190Y250767D01*
Y248668D01*
X340665Y248143D01*
X339616D01*
X339091Y248668D01*
Y250767D01*
X296585Y245114D02*
Y241965D01*
X298684D01*
X301833Y244589D02*
X301308Y245114D01*
X300258D01*
X299734Y244589D01*
Y242490D01*
X300258Y241965D01*
X301308D01*
X301833Y242490D01*
X302882Y245114D02*
Y241965D01*
X304456D01*
X304981Y242490D01*
Y244589D01*
X304456Y245114D01*
X302882D01*
X309179D02*
Y241965D01*
X310754D01*
X311278Y242490D01*
Y243015D01*
X310754Y243539D01*
X309179D01*
X310754D01*
X311278Y244064D01*
Y244589D01*
X310754Y245114D01*
X309179D01*
X312853Y241965D02*
X313902D01*
X314427Y242490D01*
Y243539D01*
X313902Y244064D01*
X312853D01*
X312328Y243539D01*
Y242490D01*
X312853Y241965D01*
X316001Y244064D02*
X317051D01*
X317576Y243539D01*
Y241965D01*
X316001D01*
X315476Y242490D01*
X316001Y243015D01*
X317576D01*
X318625Y244064D02*
Y241965D01*
Y243015D01*
X319150Y243539D01*
X319675Y244064D01*
X320199D01*
X323873Y245114D02*
Y241965D01*
X322299D01*
X321774Y242490D01*
Y243539D01*
X322299Y244064D01*
X323873D01*
X328071Y241965D02*
X329120D01*
X328596D01*
Y245114D01*
X328071Y244589D01*
X330695Y241965D02*
Y242490D01*
X331220D01*
Y241965D01*
X330695D01*
X333319Y244589D02*
X333843Y245114D01*
X334893D01*
X335418Y244589D01*
Y242490D01*
X334893Y241965D01*
X333843D01*
X333319Y242490D01*
Y244589D01*
D14*
X171868Y117613D02*
X171423Y118536D01*
X170424Y118764D01*
X169623Y118125D01*
Y117101D01*
X170424Y116462D01*
X171423Y116690D01*
X171868Y117613D01*
D15*
X35250Y215650D02*
X116250D01*
Y252650D01*
X35250D02*
X116250D01*
X35250Y215650D02*
Y252650D01*
X47560Y202231D02*
X49529D01*
Y189239D02*
Y202231D01*
X45592Y189239D02*
X49529D01*
X45592D02*
Y202231D01*
X47560D01*
X331149Y154977D02*
Y198477D01*
X357149D01*
Y154977D02*
Y198477D01*
X331149Y154977D02*
X357149D01*
X324788Y122351D02*
Y127371D01*
X303134D02*
X324788D01*
X303134Y115559D02*
Y127371D01*
Y115559D02*
X324788D01*
Y122351D01*
X324473Y57509D02*
Y64301D01*
X302819Y57509D02*
X324473D01*
X302819D02*
Y69320D01*
X324473D01*
Y64301D02*
Y69320D01*
X211664Y226841D02*
X218456D01*
Y205187D02*
Y226841D01*
X206645Y205187D02*
X218456D01*
X206645D02*
Y226841D01*
X211664D01*
X53950Y178000D02*
X79950D01*
X53950Y134500D02*
Y178000D01*
Y134500D02*
X79950D01*
Y178000D01*
X178495Y222202D02*
X185286D01*
X178495D02*
Y243856D01*
X190305D01*
Y222202D02*
Y243856D01*
X185286Y222202D02*
X190305D01*
D16*
X47265Y195637D02*
X47560Y195341D01*
D17*
X47265Y195637D02*
X48249D01*
D18*
X45985Y196227D02*
X49233D01*
X45985D02*
X47560Y194652D01*
X47658D02*
X49233Y196227D01*
X298365Y300D02*
Y55800D01*
Y300D02*
X329365D01*
Y55800D01*
X298365D02*
X329365D01*
X201450Y19253D02*
X202450Y18253D01*
X203450Y19253D01*
X201450D02*
X203450D01*
X202450Y18253D02*
Y19253D01*
X190350Y19203D02*
X191350Y18203D01*
X192350Y19203D01*
X190350D02*
X192350D01*
X191350Y18203D02*
Y19203D01*
X177600Y19747D02*
X178600Y18747D01*
X179600Y19747D01*
X177600D02*
X179600D01*
X178600Y18747D02*
Y19747D01*
X108450Y101950D02*
X109450D01*
Y100950D02*
Y102950D01*
X108450Y101950D02*
X109450Y100950D01*
X108450Y101950D02*
X109450Y102950D01*
X61403Y108950D02*
X62403D01*
X61403Y107950D02*
Y109950D01*
X62403Y108950D01*
X61403Y107950D02*
X62403Y108950D01*
M02*
