G04*
G04 #@! TF.GenerationSoftware,Altium Limited,Altium Designer,20.2.6 (244)*
G04*
G04 Layer_Color=32768*
%FSLAX25Y25*%
%MOIN*%
G70*
G04*
G04 #@! TF.SameCoordinates,4AA97A5E-EA8F-4A6E-9BBD-7CD435F3AC8D*
G04*
G04*
G04 #@! TF.FilePolarity,Positive*
G04*
G01*
G75*
%ADD12C,0.00787*%
D12*
X281489Y247161D02*
X289411D01*
X281489Y232153D02*
Y247161D01*
Y232153D02*
X289411D01*
Y247161D01*
X235960Y107689D02*
X250968D01*
X235960D02*
Y115611D01*
X250968D01*
Y107689D02*
Y115611D01*
X327761Y179360D02*
Y194368D01*
X319839Y179360D02*
X327761D01*
X319839D02*
Y194368D01*
X327761D01*
X82139Y135610D02*
X90061D01*
Y150618D01*
X82139D02*
X90061D01*
X82139Y135610D02*
Y150618D01*
X145275Y18989D02*
Y26911D01*
Y18989D02*
X160283D01*
Y26911D01*
X145275D02*
X160283D01*
X175840Y132589D02*
Y140511D01*
X160832D02*
X175840D01*
X160832Y132589D02*
Y140511D01*
Y132589D02*
X175840D01*
X142719Y111761D02*
X150641D01*
Y126769D01*
X142719D02*
X150641D01*
X142719Y111761D02*
Y126769D01*
X145769Y80356D02*
X153691D01*
Y95364D01*
X145769D02*
X153691D01*
X145769Y80356D02*
Y95364D01*
X234240Y49189D02*
Y57111D01*
X219232D02*
X234240D01*
X219232Y49189D02*
Y57111D01*
Y49189D02*
X234240D01*
X250968Y93039D02*
Y100961D01*
X235960D02*
X250968D01*
X235960Y93039D02*
Y100961D01*
Y93039D02*
X250968D01*
Y85139D02*
Y93061D01*
X235960D02*
X250968D01*
X235960Y85139D02*
Y93061D01*
Y85139D02*
X250968D01*
X233236Y59654D02*
X248244D01*
X233236D02*
Y67576D01*
X248244D01*
Y59654D02*
Y67576D01*
X181314Y26608D02*
Y35135D01*
X176786Y26608D02*
X181314D01*
X176786D02*
Y35135D01*
X181314D01*
X200285Y13832D02*
Y23674D01*
X204615D01*
Y13832D02*
Y23674D01*
X200285Y13832D02*
X204615D01*
X189185Y13781D02*
Y23624D01*
X193515D01*
Y13781D02*
Y23624D01*
X189185Y13781D02*
X193515D01*
X176435Y14326D02*
Y24169D01*
X180765D01*
Y14326D02*
Y24169D01*
X176435Y14326D02*
X180765D01*
X104029Y99785D02*
Y104115D01*
Y99785D02*
X113871D01*
Y104115D01*
X104029D02*
X113871D01*
X93442Y98546D02*
Y111932D01*
X76882D02*
X93442D01*
X76882Y98546D02*
Y111932D01*
Y98546D02*
X93442D01*
X66824Y106785D02*
Y111115D01*
X56981D02*
X66824D01*
X56981Y106785D02*
Y111115D01*
Y106785D02*
X66824D01*
M02*
